<svg width="20" height="20" viewBox="0 0 20 20" fill="none" xmlns="http://www.w3.org/2000/svg">
<g id="directions_car_16dp_53BCEC_FILL0_wght300_GRAD0_opsz20 1">
<path id="Vector" d="M4.67946 15.0834V15.952C4.67946 16.1274 4.618 16.2765 4.49508 16.3992C4.37216 16.522 4.22286 16.5834 4.04716 16.5834C3.87161 16.5834 3.72265 16.522 3.60029 16.3992C3.47793 16.2765 3.41675 16.1274 3.41675 15.952V10.3261C3.41675 10.2438 3.42585 10.1613 3.44404 10.0788C3.46223 9.99647 3.4846 9.90869 3.51112 9.8155L4.96571 6.25154C5.06293 6.00071 5.22522 5.7989 5.45258 5.64612C5.67994 5.49321 5.92814 5.41675 6.19716 5.41675H13.803C14.072 5.41675 14.3202 5.49321 14.5476 5.64612C14.7749 5.7989 14.9372 6.00071 15.0345 6.25154L16.489 9.8155C16.5156 9.90869 16.5379 9.99647 16.5561 10.0788C16.5743 10.1613 16.5834 10.2438 16.5834 10.3261V15.952C16.5834 16.1274 16.522 16.2765 16.399 16.3992C16.276 16.522 16.1267 16.5834 15.9511 16.5834C15.7754 16.5834 15.6264 16.522 15.504 16.3992C15.3818 16.2765 15.3207 16.1274 15.3207 15.952V15.0834H4.67946ZM4.86071 9.48091H15.1395L14.0274 6.66842C14.006 6.61494 13.9739 6.57355 13.9311 6.54425C13.8883 6.5148 13.8376 6.50008 13.7788 6.50008H6.22133C6.16258 6.50008 6.11182 6.5148 6.06904 6.54425C6.02626 6.57355 5.99418 6.61494 5.97279 6.66842L4.86071 9.48091ZM6.46987 13.122C6.70362 13.122 6.90175 13.0401 7.06425 12.8763C7.22661 12.7127 7.30779 12.514 7.30779 12.2803C7.30779 12.0465 7.22598 11.8484 7.06237 11.6859C6.89862 11.5236 6.69987 11.4424 6.46612 11.4424C6.23237 11.4424 6.03432 11.5242 5.87196 11.6878C5.70946 11.8515 5.62821 12.0503 5.62821 12.284C5.62821 12.5178 5.71008 12.7158 5.87383 12.8782C6.03744 13.0407 6.23612 13.122 6.46987 13.122ZM13.534 13.122C13.7678 13.122 13.9658 13.0401 14.1282 12.8763C14.2907 12.7127 14.372 12.514 14.372 12.2803C14.372 12.0465 14.2901 11.8484 14.1263 11.6859C13.9627 11.5236 13.764 11.4424 13.5303 11.4424C13.2965 11.4424 13.0984 11.5242 12.9359 11.6878C12.7736 11.8515 12.6924 12.0503 12.6924 12.284C12.6924 12.5178 12.7742 12.7158 12.9378 12.8782C13.1015 13.0407 13.3003 13.122 13.534 13.122ZM4.50008 14.0001H15.5001V10.5642H4.50008V14.0001Z" fill="#ECE5DD"/>
</g>
</svg>
