<svg width="33" height="33" viewBox="0 0 33 33" fill="none" xmlns="http://www.w3.org/2000/svg">
<path d="M11.6027 24.0167C11.0296 24.0167 10.5387 23.8123 10.13 23.4037C9.72133 22.995 9.517 22.5041 9.517 21.931V5.45267C9.517 4.87956 9.72133 4.38867 10.13 3.98C10.5387 3.57134 11.0296 3.367 11.6027 3.367H24.081C24.6541 3.367 25.145 3.57134 25.5537 3.98C25.9623 4.38867 26.1667 4.87956 26.1667 5.45267V21.931C26.1667 22.5041 25.9623 22.995 25.5537 23.4037C25.145 23.8123 24.6541 24.0167 24.081 24.0167H11.6027ZM11.6027 22.3413H24.081C24.1837 22.3413 24.2778 22.2986 24.3633 22.213C24.4487 22.1277 24.4913 22.0337 24.4913 21.931V5.45267C24.4913 5.35 24.4487 5.25589 24.3633 5.17034C24.2778 5.085 24.1837 5.04234 24.081 5.04234H11.6027C11.5 5.04234 11.4059 5.085 11.3203 5.17034C11.235 5.25589 11.1923 5.35 11.1923 5.45267V21.931C11.1923 22.0337 11.235 22.1277 11.3203 22.213C11.4059 22.2986 11.5 22.3413 11.6027 22.3413ZM7.58567 28.0337C7.01256 28.0337 6.52167 27.8293 6.113 27.4207C5.70433 27.012 5.5 26.5211 5.5 25.948V7.79434H7.17533V25.948C7.17533 26.0507 7.218 26.1448 7.30333 26.2303C7.38889 26.3157 7.483 26.3583 7.58567 26.3583H21.7393V28.0337H7.58567Z" fill="#EB3700"/>
<path d="M14.5031 14.5516L16.348 16.3965L21.563 11.1819C21.6976 11.0473 21.8538 10.98 22.0317 10.98C22.2097 10.98 22.3659 11.0473 22.5005 11.1819C22.6485 11.3299 22.7174 11.4946 22.7072 11.6759C22.6972 11.8572 22.6283 12.0118 22.5005 12.1396L17.1553 17.5049C16.9264 17.7338 16.6573 17.8482 16.348 17.8482C16.0386 17.8482 15.7695 17.7338 15.5406 17.5049L13.5482 15.5156C13.4002 15.381 13.3262 15.2247 13.3262 15.0468C13.3262 14.8689 13.4002 14.7059 13.5482 14.5579C13.6962 14.4233 13.8603 14.3567 14.0406 14.358C14.2211 14.3593 14.3753 14.4238 14.5031 14.5516Z" fill="#EB3700" stroke="#EB3700" stroke-width="0.3" stroke-linecap="round"/>
</svg>
