<svg width="40" height="40" viewBox="0 0 40 40" fill="none" xmlns="http://www.w3.org/2000/svg">
<path d="M14.4229 28.8463C13.7404 28.8463 13.1638 28.611 12.6929 28.1404C12.2224 27.6696 11.9871 27.0929 11.9871 26.4104V7.43583C11.9871 6.75306 12.2224 6.17639 12.6929 5.70583C13.1638 5.23528 13.7404 5 14.4229 5H28.3975C29.0803 5 29.6569 5.23528 30.1275 5.70583C30.5981 6.17639 30.8333 6.75306 30.8333 7.43583V26.4104C30.8333 27.0929 30.5981 27.6696 30.1275 28.1404C29.6569 28.611 29.0803 28.8463 28.3975 28.8463H14.4229ZM14.4229 27.4358H28.3975C28.6539 27.4358 28.8889 27.329 29.1025 27.1154C29.3161 26.9018 29.4229 26.6668 29.4229 26.4104V7.43583C29.4229 7.17945 29.3161 6.94444 29.1025 6.73083C28.8889 6.51722 28.6539 6.41042 28.3975 6.41042H14.4229C14.1665 6.41042 13.9315 6.51722 13.7179 6.73083C13.5043 6.94444 13.3975 7.17945 13.3975 7.43583V26.4104C13.3975 26.6668 13.5043 26.9018 13.7179 27.1154C13.9315 27.329 14.1665 27.4358 14.4229 27.4358ZM9.93583 33.3333C9.25306 33.3333 8.67639 33.0981 8.20583 32.6275C7.73528 32.1569 7.5 31.5803 7.5 30.8975V11.2179C7.5 11.0171 7.56778 10.8493 7.70333 10.7146C7.83889 10.5801 8.00792 10.5129 8.21042 10.5129C8.41264 10.5129 8.57986 10.5801 8.71208 10.7146C8.84431 10.8493 8.91042 11.0171 8.91042 11.2179V30.8975C8.91042 31.1539 9.01722 31.3889 9.23083 31.6025C9.44444 31.8161 9.67944 31.9229 9.93583 31.9229H24.6154C24.8163 31.9229 24.984 31.9908 25.1187 32.1267C25.2532 32.2622 25.3204 32.4311 25.3204 32.6333C25.3204 32.8358 25.2532 33.0031 25.1187 33.135C24.984 33.2672 24.8163 33.3333 24.6154 33.3333H9.93583Z" fill="#ECE5DD"/>
<path d="M17.7458 17.2808L19.6987 19.2338L25.2192 13.7137C25.3617 13.5712 25.5271 13.5 25.7154 13.5C25.9038 13.5 26.0692 13.5712 26.2117 13.7137C26.3683 13.8704 26.4412 14.0447 26.4304 14.2367C26.4199 14.4286 26.3469 14.5922 26.2117 14.7275L20.5533 20.4071C20.3111 20.6493 20.0262 20.7704 19.6987 20.7704C19.3712 20.7704 19.0864 20.6493 18.8442 20.4071L16.735 18.3013C16.5783 18.1588 16.5 17.9933 16.5 17.805C16.5 17.6167 16.5783 17.4442 16.735 17.2875C16.8917 17.145 17.0654 17.0744 17.2562 17.0758C17.4474 17.0772 17.6106 17.1456 17.7458 17.2808Z" fill="#ECE5DD"/>
</svg>
