<svg width="40" height="40" viewBox="0 0 40 40" fill="none" xmlns="http://www.w3.org/2000/svg">
<path fill-rule="evenodd" clip-rule="evenodd" d="M15.136 30.0533C16.4408 27.5422 17.2836 23.9897 17.2836 20C17.2836 16.0103 16.4408 12.4578 15.136 9.94668C13.8005 7.3762 12.1668 6.2 10.6898 6.2C9.21284 6.2 7.57918 7.3762 6.24359 9.94668C4.93882 12.4578 4.096 16.0103 4.096 20C4.096 23.9897 4.93882 27.5422 6.24359 30.0533C7.57918 32.6238 9.21284 33.8 10.6898 33.8C12.1668 33.8 13.8005 32.6238 15.136 30.0533ZM10.6898 35C14.9942 35 18.4836 28.2843 18.4836 20C18.4836 11.7157 14.9942 5 10.6898 5C6.38541 5 2.896 11.7157 2.896 20C2.896 28.2843 6.38541 35 10.6898 35Z" fill="#EB3700"/>
<path d="M12.0706 20.9826C12.0706 24.4618 10.0544 27.2823 7.56726 27.2823C5.08016 27.2823 3.06396 24.4618 3.06396 20.9826C3.06396 17.5034 5.08016 14.683 7.56726 14.683C10.0544 14.683 12.0706 17.5034 12.0706 20.9826Z" fill="#EB3700"/>
<path fill-rule="evenodd" clip-rule="evenodd" d="M33.7562 30.0533C35.0609 27.5422 35.9038 23.9897 35.9038 20C35.9038 16.0103 35.0609 12.4578 33.7562 9.94668C32.4206 7.3762 30.7869 6.2 29.3099 6.2C27.833 6.2 26.1993 7.3762 24.8637 9.94668C23.5589 12.4578 22.7161 16.0103 22.7161 20C22.7161 23.9897 23.5589 27.5422 24.8637 30.0533C26.1993 32.6238 27.833 33.8 29.3099 33.8C30.7869 33.8 32.4206 32.6238 33.7562 30.0533ZM29.3099 35C33.6143 35 37.1038 28.2843 37.1038 20C37.1038 11.7157 33.6143 5 29.3099 5C25.0055 5 21.5161 11.7157 21.5161 20C21.5161 28.2843 25.0055 35 29.3099 35Z" fill="#EB3700"/>
<path d="M30.6907 20.9826C30.6907 24.4618 28.6745 27.2823 26.1874 27.2823C23.7003 27.2823 21.6841 24.4618 21.6841 20.9826C21.6841 17.5034 23.7003 14.683 26.1874 14.683C28.6745 14.683 30.6907 17.5034 30.6907 20.9826Z" fill="#EB3700"/>
</svg>
