<svg width="41" height="40" viewBox="0 0 41 40" fill="none" xmlns="http://www.w3.org/2000/svg">
<g clip-path="url(#clip0_152_1719)">
<path d="M23.5609 4.53212C22.4967 4.1935 21.3357 4 20.1505 4C16.74 4 13.6682 5.548 11.6123 7.99093L16.8852 12.4172L23.5609 4.53212Z" fill="#EB3700"/>
<path d="M11.6122 7.99097C9.99169 9.92596 9 12.4415 9 15.1505C9 17.2548 9.41119 18.9479 10.1126 20.4717L16.8851 12.4173L11.6122 7.99097Z" fill="#EB3700"/>
<path d="M20.1747 10.8935C22.5451 10.8935 24.4559 12.8043 24.4559 15.1747C24.4559 16.2148 24.0689 17.1823 23.4401 17.9321C23.4401 17.9321 26.8021 13.917 30.0916 10.0228C28.7371 7.41053 26.3909 5.42716 23.561 4.53223L16.8853 12.4173C17.6834 11.4982 18.8444 10.8935 20.1747 10.8935Z" fill="#EB3700"/>
<path d="M20.1748 19.4317C17.8044 19.4317 15.8936 17.5209 15.8936 15.1505C15.8936 14.1105 16.2564 13.143 16.8853 12.4174L10.1128 20.4718C11.2738 23.0357 13.2088 25.1158 15.1922 27.7038L23.4401 17.9079C22.6419 18.8512 21.4809 19.4317 20.1748 19.4317Z" fill="#EB3700"/>
<path d="M23.2947 30.4127C27.0196 24.5836 31.3491 21.9471 31.3491 15.1746C31.3491 13.3122 30.8896 11.5707 30.0914 10.0227L15.1919 27.7037C15.8208 28.5261 16.4738 29.4694 17.1027 30.4369C19.3763 33.9441 18.7474 36.0242 20.1987 36.0242C21.6499 36.0242 21.0211 33.9199 23.2947 30.4127Z" fill="#EB3700"/>
</g>
<defs>
<clipPath id="clip0_152_1719">
<rect width="22.325" height="32" fill="white" transform="translate(9 4)"/>
</clipPath>
</defs>
</svg>
