<svg width="32" height="32" viewBox="0 0 32 32" fill="none" xmlns="http://www.w3.org/2000/svg">
<path d="M16.005 15.6579C16.6246 15.6579 17.1533 15.4374 17.591 14.9963C18.029 14.5551 18.248 14.0248 18.248 13.4053C18.248 12.7857 18.0274 12.257 17.586 11.8193C17.1449 11.3813 16.6146 11.1623 15.995 11.1623C15.3755 11.1623 14.8468 11.3828 14.409 11.8239C13.971 12.2653 13.752 12.7957 13.752 13.4153C13.752 14.0346 13.9727 14.5633 14.414 15.0013C14.8551 15.439 15.3855 15.6579 16.005 15.6579ZM16 26.4556C18.726 24.0214 20.8057 21.6958 22.239 19.4789C23.6724 17.2623 24.389 15.3239 24.389 13.6639C24.389 11.1381 23.5867 9.06192 21.982 7.43525C20.3774 5.80881 18.3834 4.99559 16 4.99559C13.6167 4.99559 11.6227 5.80881 10.018 7.43525C8.41337 9.06192 7.61104 11.1381 7.61104 13.6639C7.61104 15.3239 8.33603 17.2623 9.78603 19.4789C11.2358 21.6958 13.3071 24.0214 16 26.4556ZM16 28.6793C12.6445 25.7717 10.1283 23.0658 8.45137 20.5616C6.77448 18.0571 5.93604 15.7579 5.93604 13.6639C5.93604 10.587 6.93126 8.09603 8.9217 6.19092C10.9124 4.28581 13.2718 3.33325 16 3.33325C18.7283 3.33325 21.0877 4.28581 23.0784 6.19092C25.0688 8.09603 26.064 10.587 26.064 13.6639C26.064 15.7579 25.2256 18.0571 23.5487 20.5616C21.8718 23.0658 19.3556 25.7717 16 28.6793Z" fill="#EB3700"/>
</svg>
