<svg width="20" height="21" viewBox="0 0 20 21" fill="none" xmlns="http://www.w3.org/2000/svg">
<path d="M5.58675 18.117V10.2693C4.92008 10.1026 4.39175 9.77907 4.00175 9.29865C3.61175 8.81837 3.41675 8.25407 3.41675 7.60573V2.95032H4.50008V7.31407H5.58675V2.95032H6.66987V7.31407H7.75654V2.95032H8.83987V7.60573C8.83987 8.25407 8.64487 8.81837 8.25487 9.29865C7.86487 9.77907 7.33654 10.1026 6.66987 10.2693V18.117H5.58675ZM13.0722 18.117V11.0145C12.3361 10.773 11.7488 10.2905 11.3103 9.56719C10.8717 8.84372 10.6524 7.9974 10.6524 7.02823C10.6524 5.89185 10.9403 4.9281 11.5161 4.13698C12.092 3.34587 12.7912 2.95032 13.6138 2.95032C14.4419 2.95032 15.1438 3.34455 15.7197 4.13303C16.2955 4.9215 16.5834 5.88455 16.5834 7.02219C16.5834 7.99775 16.3628 8.84796 15.9215 9.57282C15.4803 10.2978 14.8916 10.7765 14.1555 11.0089V18.117H13.0722Z" fill="#EB3700"/>
</svg>
