<svg width="40" height="41" viewBox="0 0 40 41" fill="none" xmlns="http://www.w3.org/2000/svg">
<path d="M20.0146 23.2289C18.6318 23.2289 17.3442 23.5511 16.1517 24.1956C14.9592 24.84 13.9806 25.7358 13.2158 26.8831C13.0656 27.1294 13.0565 27.364 13.1888 27.5868C13.3213 27.8099 13.5136 27.9214 13.7658 27.9214C13.8725 27.9214 13.9692 27.8967 14.0558 27.8472C14.1425 27.7978 14.214 27.7242 14.2704 27.6264C14.9135 26.6628 15.7386 25.9122 16.7458 25.3747C17.7533 24.8375 18.8417 24.5689 20.0108 24.5689C21.1803 24.5689 22.2661 24.8397 23.2683 25.3814C24.2703 25.9231 25.0929 26.6807 25.7362 27.6543C25.8087 27.7376 25.8869 27.8029 25.9708 27.8501C26.0544 27.8976 26.1504 27.9214 26.2588 27.9214C26.5115 27.9214 26.7061 27.8086 26.8425 27.5831C26.9789 27.3578 26.9719 27.1429 26.8217 26.9385C26.0803 25.7746 25.1003 24.8654 23.8817 24.211C22.6631 23.5563 21.374 23.2289 20.0146 23.2289ZM25.6017 18.2118C26.0881 18.2118 26.5047 18.036 26.8517 17.6843C27.1983 17.3324 27.3717 16.9132 27.3717 16.4268C27.3717 15.9404 27.1958 15.5238 26.8442 15.1768C26.4922 14.8299 26.0731 14.6564 25.5867 14.6564C25.1 14.6564 24.6833 14.8324 24.3367 15.1843C23.9897 15.5363 23.8163 15.9554 23.8163 16.4418C23.8163 16.9282 23.9922 17.3449 24.3442 17.6918C24.6961 18.0385 25.1153 18.2118 25.6017 18.2118ZM14.4133 18.2118C14.9 18.2118 15.3167 18.036 15.6633 17.6843C16.0103 17.3324 16.1838 16.9132 16.1838 16.4268C16.1838 15.9404 16.0078 15.5238 15.6558 15.1768C15.3039 14.8299 14.8847 14.6564 14.3983 14.6564C13.9119 14.6564 13.4953 14.8324 13.1483 15.1843C12.8017 15.5363 12.6283 15.9554 12.6283 16.4418C12.6283 16.9282 12.8042 17.3449 13.1558 17.6918C13.5078 18.0385 13.9269 18.2118 14.4133 18.2118ZM20.0054 35.6885C17.9313 35.6885 15.9811 35.2949 14.155 34.5076C12.3292 33.7204 10.7408 32.6521 9.39 31.3026C8.03917 29.9532 6.96986 28.3663 6.18208 26.5418C5.39403 24.7176 5 22.7683 5 20.6939C5 18.6197 5.39361 16.6696 6.18083 14.8435C6.96806 13.0176 8.03639 11.4293 9.38583 10.0785C10.7353 8.72764 12.3222 7.65834 14.1467 6.87056C15.9708 6.0825 17.9201 5.68848 19.9946 5.68848C22.0688 5.68848 24.0189 6.08209 25.845 6.86931C27.6708 7.65653 29.2592 8.72487 30.61 10.0743C31.9608 11.4238 33.0301 13.0107 33.8179 14.8351C34.606 16.6593 35 18.6086 35 20.6831C35 22.7572 34.6064 24.7074 33.8192 26.5335C33.0319 28.3593 31.9636 29.9476 30.6142 31.2985C29.2647 32.6493 27.6778 33.7186 25.8533 34.5064C24.0292 35.2944 22.0799 35.6885 20.0054 35.6885ZM19.9979 34.2781C23.7913 34.2781 27.0049 32.9618 29.6388 30.3293C32.2726 27.6968 33.5896 24.4839 33.5896 20.6906C33.5896 16.8972 32.2733 13.6836 29.6408 11.0497C27.0083 8.41584 23.7954 7.09889 20.0021 7.09889C16.2087 7.09889 12.9951 8.41514 10.3613 11.0476C7.72736 13.6801 6.41042 16.8931 6.41042 20.6864C6.41042 24.4797 7.72667 27.6933 10.3592 30.3272C12.9917 32.9611 16.2046 34.2781 19.9979 34.2781Z" fill="#EB3700"/>
</svg>
