<svg width="41" height="41" viewBox="0 0 41 41" fill="none" xmlns="http://www.w3.org/2000/svg">
<path d="M20.5146 28.6683C21.874 28.6683 23.1631 28.3374 24.3817 27.6758C25.6003 27.0141 26.5803 26.1086 27.3217 24.9591C27.4719 24.7402 27.4789 24.5181 27.3425 24.2929C27.2061 24.0673 27.0115 23.9545 26.7588 23.9545C26.6504 23.9545 26.5544 23.9817 26.4708 24.0362C26.3869 24.0909 26.3087 24.1599 26.2362 24.2433C25.5929 25.2024 24.7715 25.9565 23.7721 26.5054C22.7729 27.0542 21.684 27.3287 20.5054 27.3287C19.3479 27.3287 18.2635 27.0599 17.2521 26.5224C16.2407 25.9849 15.4135 25.2273 14.7704 24.2495C14.714 24.1662 14.6425 24.0962 14.5558 24.0395C14.4692 23.9829 14.3725 23.9545 14.2658 23.9545C14.0136 23.9545 13.8213 24.0661 13.6888 24.2891C13.5565 24.5119 13.5656 24.7466 13.7158 24.9933C14.4806 26.1544 15.4592 27.0572 16.6517 27.7016C17.8442 28.3461 19.1318 28.6683 20.5146 28.6683ZM26.1017 18.057C26.5881 18.057 27.0047 17.8812 27.3517 17.5295C27.6983 17.1776 27.8717 16.7584 27.8717 16.272C27.8717 15.7856 27.6958 15.369 27.3442 15.022C26.9922 14.6751 26.5731 14.5016 26.0867 14.5016C25.6 14.5016 25.1833 14.6776 24.8367 15.0295C24.4897 15.3815 24.3163 15.8006 24.3163 16.287C24.3163 16.7734 24.4922 17.1901 24.8442 17.537C25.1961 17.8837 25.6153 18.057 26.1017 18.057ZM14.9133 18.057C15.4 18.057 15.8167 17.8812 16.1633 17.5295C16.5103 17.1776 16.6838 16.7584 16.6838 16.272C16.6838 15.7856 16.5078 15.369 16.1558 15.022C15.8039 14.6751 15.3847 14.5016 14.8983 14.5016C14.4119 14.5016 13.9953 14.6776 13.6483 15.0295C13.3017 15.3815 13.1283 15.8006 13.1283 16.287C13.1283 16.7734 13.3042 17.1901 13.6558 17.537C14.0078 17.8837 14.4269 18.057 14.9133 18.057ZM20.5054 35.5337C18.4313 35.5337 16.4811 35.1401 14.655 34.3529C12.8292 33.5656 11.2408 32.4973 9.89 31.1479C8.53917 29.7984 7.46986 28.2115 6.68208 26.387C5.89403 24.5629 5.5 22.6136 5.5 20.5391C5.5 18.4649 5.89361 16.5148 6.68083 14.6887C7.46806 12.8629 8.53639 11.2745 9.88583 9.92369C11.2353 8.57286 12.8222 7.50355 14.6467 6.71577C16.4708 5.92772 18.4201 5.53369 20.4946 5.53369C22.5688 5.53369 24.5189 5.9273 26.345 6.71453C28.1708 7.50175 29.7592 8.57008 31.11 9.91953C32.4608 11.269 33.5301 12.8559 34.3179 14.6804C35.106 16.5045 35.5 18.4538 35.5 20.5283C35.5 22.6024 35.1064 24.5526 34.3192 26.3787C33.5319 28.2045 32.4636 29.7929 31.1142 31.1437C29.7647 32.4945 28.1778 33.5638 26.3533 34.3516C24.5292 35.1397 22.5799 35.5337 20.5054 35.5337ZM20.4979 34.1233C24.2913 34.1233 27.5049 32.807 30.1388 30.1745C32.7726 27.542 34.0896 24.3291 34.0896 20.5358C34.0896 16.7424 32.7733 13.5288 30.1408 10.8949C27.5083 8.26105 24.2954 6.94411 20.5021 6.94411C16.7087 6.94411 13.4951 8.26036 10.8613 10.8929C8.22736 13.5254 6.91042 16.7383 6.91042 20.5316C6.91042 24.3249 8.22667 27.5386 10.8592 30.1724C13.4917 32.8063 16.7046 34.1233 20.4979 34.1233Z" fill="#EB3700"/>
</svg>
