<svg width="41" height="40" viewBox="0 0 41 40" fill="none" xmlns="http://www.w3.org/2000/svg">
<g id="sentiment_satisfied_40dp_53BCEC_FILL0_wght200_GRAD0_opsz40">
<path id="Vector" d="M20.5146 28.1346C21.874 28.1346 23.1631 27.8038 24.3817 27.1421C25.6003 26.4804 26.5803 25.5749 27.3217 24.4254C27.4719 24.2065 27.4789 23.9844 27.3425 23.7592C27.2061 23.5336 27.0115 23.4208 26.7588 23.4208C26.6504 23.4208 26.5544 23.4481 26.4708 23.5025C26.3869 23.5572 26.3088 23.6263 26.2362 23.7096C25.5929 24.6688 24.7715 25.4228 23.7721 25.9717C22.7729 26.5206 21.684 26.795 20.5054 26.795C19.3479 26.795 18.2635 26.5263 17.2521 25.9888C16.2407 25.4513 15.4135 24.6936 14.7704 23.7158C14.714 23.6325 14.6425 23.5625 14.5558 23.5058C14.4692 23.4492 14.3725 23.4208 14.2658 23.4208C14.0136 23.4208 13.8212 23.5324 13.6888 23.7554C13.5565 23.9782 13.5656 24.2129 13.7158 24.4596C14.4806 25.6207 15.4592 26.5235 16.6517 27.1679C17.8442 27.8124 19.1318 28.1346 20.5146 28.1346ZM26.1017 17.5233C26.5881 17.5233 27.0047 17.3475 27.3517 16.9958C27.6983 16.6439 27.8717 16.2247 27.8717 15.7383C27.8717 15.2519 27.6958 14.8353 27.3442 14.4883C26.9922 14.1414 26.5731 13.9679 26.0867 13.9679C25.6 13.9679 25.1833 14.1439 24.8367 14.4958C24.4897 14.8478 24.3163 15.2669 24.3163 15.7533C24.3163 16.2397 24.4922 16.6564 24.8442 17.0033C25.1961 17.35 25.6153 17.5233 26.1017 17.5233ZM14.9133 17.5233C15.4 17.5233 15.8167 17.3475 16.1633 16.9958C16.5103 16.6439 16.6838 16.2247 16.6838 15.7383C16.6838 15.2519 16.5078 14.8353 16.1558 14.4883C15.8039 14.1414 15.3847 13.9679 14.8983 13.9679C14.4119 13.9679 13.9953 14.1439 13.6483 14.4958C13.3017 14.8478 13.1283 15.2669 13.1283 15.7533C13.1283 16.2397 13.3042 16.6564 13.6558 17.0033C14.0078 17.35 14.4269 17.5233 14.9133 17.5233ZM20.5054 35C18.4313 35 16.4811 34.6064 14.655 33.8192C12.8292 33.0319 11.2408 31.9636 9.89 30.6142C8.53917 29.2647 7.46986 27.6778 6.68208 25.8533C5.89403 24.0292 5.5 22.0799 5.5 20.0054C5.5 17.9313 5.89361 15.9811 6.68083 14.155C7.46806 12.3292 8.53639 10.7408 9.88583 9.39C11.2353 8.03917 12.8222 6.96986 14.6467 6.18208C16.4708 5.39403 18.4201 5 20.4946 5C22.5688 5 24.5189 5.39361 26.345 6.18083C28.1708 6.96806 29.7592 8.03639 31.11 9.38583C32.4608 10.7353 33.5301 12.3222 34.3179 14.1467C35.106 15.9708 35.5 17.9201 35.5 19.9946C35.5 22.0688 35.1064 24.0189 34.3192 25.845C33.5319 27.6708 32.4636 29.2592 31.1142 30.61C29.7647 31.9608 28.1778 33.0301 26.3533 33.8179C24.5292 34.606 22.5799 35 20.5054 35ZM20.4979 33.5896C24.2913 33.5896 27.5049 32.2733 30.1388 29.6408C32.7726 27.0083 34.0896 23.7954 34.0896 20.0021C34.0896 16.2087 32.7733 12.9951 30.1408 10.3612C27.5083 7.72736 24.2954 6.41042 20.5021 6.41042C16.7087 6.41042 13.4951 7.72667 10.8612 10.3592C8.22736 12.9917 6.91042 16.2046 6.91042 19.9979C6.91042 23.7913 8.22667 27.0049 10.8592 29.6388C13.4917 32.2726 16.7046 33.5896 20.4979 33.5896Z" fill="black"/>
</g>
</svg>
