<svg width="20" height="20" viewBox="0 0 20 20" fill="none" xmlns="http://www.w3.org/2000/svg">
<g id="star_16dp_53BCEC_FILL0_wght300_GRAD0_opsz20 2">
<path id="Vector" d="M7.33332 13.8959L9.99998 12.3126L12.6875 13.8959L11.9791 10.8959L14.2916 8.91674L11.2291 8.6459L9.99998 5.79174L8.77082 8.6459L5.70832 8.91674L8.04165 10.8959L7.33332 13.8959ZM9.99998 13.5738L6.79977 15.4872C6.67894 15.5438 6.56832 15.5665 6.4679 15.5553C6.36748 15.544 6.27512 15.5101 6.19082 15.4536C6.10637 15.3969 6.04436 15.3117 6.00477 15.198C5.96533 15.0842 5.96373 14.9723 5.99998 14.8622L6.83977 11.3061L4.01936 8.91195C3.9263 8.83292 3.86859 8.73917 3.84623 8.6307C3.82373 8.52222 3.82797 8.41722 3.85894 8.3157C3.88991 8.21431 3.94762 8.13049 4.03207 8.06424C4.11651 7.99799 4.21804 7.96056 4.33665 7.95195L8.0304 7.62195L9.49686 4.22924C9.55019 4.11382 9.62068 4.02861 9.70832 3.97361C9.79596 3.91861 9.89318 3.89111 9.99998 3.89111C10.1068 3.89111 10.204 3.91861 10.2916 3.97361C10.3793 4.02861 10.4498 4.11382 10.5031 4.22924L11.9696 7.64278L15.6633 7.95195C15.7819 7.96056 15.8835 8.00146 15.9679 8.07466C16.0523 8.14785 16.1101 8.23514 16.141 8.33653C16.172 8.43806 16.1728 8.53959 16.1433 8.64111C16.114 8.74264 16.0528 8.83292 15.9598 8.91195L13.1602 11.3061L14 14.8622C14.0362 14.9723 14.0346 15.0842 13.9952 15.198C13.9556 15.3117 13.8936 15.3969 13.8092 15.4536C13.7248 15.5101 13.6325 15.544 13.5321 15.5553C13.4316 15.5665 13.321 15.5438 13.2002 15.4872L9.99998 13.5738Z" fill="#ECE5DD"/>
</g>
</svg>
