<svg width="20" height="20" viewBox="0 0 20 20" fill="none" xmlns="http://www.w3.org/2000/svg">
<g id="train_16dp_53BCEC_FILL0_wght300_GRAD0_opsz20">
<path id="Vector" d="M4.41675 13.3399V6.00008C4.41675 5.59619 4.51397 5.23348 4.70841 4.91196C4.90286 4.59043 5.21696 4.318 5.65071 4.09466C6.08446 3.87133 6.66057 3.70251 7.37904 3.58821C8.09751 3.4739 8.97119 3.41675 10.0001 3.41675C11.0161 3.41675 11.8758 3.4739 12.5795 3.58821C13.2829 3.70251 13.8556 3.87133 14.2974 4.09466C14.7392 4.318 15.064 4.59043 15.2717 4.91196C15.4795 5.23348 15.5834 5.59619 15.5834 6.00008V13.3399C15.5834 14.015 15.3679 14.6063 14.9367 15.1138C14.5056 15.6213 13.9525 15.9306 13.2774 16.0417L13.8365 16.6011C14.0193 16.7838 14.0629 16.9931 13.9672 17.2292C13.8716 17.4654 13.6945 17.5834 13.4359 17.5834C13.3462 17.5834 13.2669 17.5666 13.198 17.533C13.1291 17.4992 13.0679 17.4557 13.0145 17.4024L11.6957 16.0834H8.30446L6.98571 17.4024C6.93223 17.4557 6.87105 17.4992 6.80216 17.533C6.73328 17.5666 6.65397 17.5834 6.56425 17.5834C6.30036 17.5834 6.12189 17.4619 6.02883 17.2188C5.93591 16.9758 5.98085 16.7629 6.16362 16.5803L6.70196 16.0417C6.04071 15.9306 5.49453 15.6213 5.06341 15.1138C4.6323 14.6063 4.41675 14.015 4.41675 13.3399ZM10.0001 4.50008C8.48939 4.50008 7.41244 4.59064 6.76925 4.77175C6.12605 4.95286 5.68966 5.27043 5.46008 5.72446H14.529C14.3249 5.28112 13.9199 4.96619 13.3142 4.77966C12.7084 4.59328 11.6037 4.50008 10.0001 4.50008ZM5.50008 9.91675H9.45842V6.80779H5.50008V9.91675ZM13.2149 11.0001H5.50008H14.5001H13.2149ZM10.5417 9.91675H14.5001V6.80779H10.5417V9.91675ZM7.50008 13.8399C7.7298 13.8399 7.92717 13.7573 8.09216 13.5922C8.2573 13.4272 8.33987 13.2298 8.33987 13.0001C8.33987 12.7704 8.2573 12.573 8.09216 12.408C7.92717 12.2429 7.7298 12.1603 7.50008 12.1603C7.27036 12.1603 7.073 12.2429 6.908 12.408C6.74286 12.573 6.66029 12.7704 6.66029 13.0001C6.66029 13.2298 6.74286 13.4272 6.908 13.5922C7.073 13.7573 7.27036 13.8399 7.50008 13.8399ZM12.5001 13.8399C12.7298 13.8399 12.9272 13.7573 13.0922 13.5922C13.2573 13.4272 13.3399 13.2298 13.3399 13.0001C13.3399 12.7704 13.2573 12.573 13.0922 12.408C12.9272 12.2429 12.7298 12.1603 12.5001 12.1603C12.2704 12.1603 12.073 12.2429 11.908 12.408C11.7429 12.573 11.6603 12.7704 11.6603 13.0001C11.6603 13.2298 11.7429 13.4272 11.908 13.5922C12.073 13.7573 12.2704 13.8399 12.5001 13.8399ZM7.16029 15.0001H12.8399C13.2939 15.0001 13.6841 14.8369 14.0105 14.5105C14.3369 14.1841 14.5001 13.7939 14.5001 13.3399V11.0001H5.50008V13.3399C5.50008 13.7939 5.66328 14.1841 5.98966 14.5105C6.31605 14.8369 6.70626 15.0001 7.16029 15.0001ZM10.0001 5.72446H14.529H5.46008H10.0001Z" fill="#ECE5DD"/>
</g>
</svg>
