<svg width="20" height="20" viewBox="0 0 20 20" fill="none" xmlns="http://www.w3.org/2000/svg">
<g id="directions_walk_16dp_53BCEC_FILL0_wght300_GRAD0_opsz20">
<path id="Vector" d="M8.89899 12.0015L7.59586 17.4113C7.57045 17.5258 7.51031 17.6179 7.41545 17.6873C7.32059 17.7567 7.21183 17.7915 7.0892 17.7915C6.92406 17.7915 6.79204 17.7327 6.69315 17.6152C6.59427 17.4977 6.56038 17.3529 6.59149 17.1808L8.4744 7.73064L6.34774 8.6473V10.2419C6.34774 10.3955 6.29635 10.5242 6.19357 10.6279C6.09065 10.7315 5.96295 10.7833 5.81045 10.7833C5.65795 10.7833 5.52885 10.7315 5.42315 10.6279C5.31732 10.5242 5.2644 10.3955 5.2644 10.2419V8.36355C5.2644 8.22786 5.30177 8.10522 5.37649 7.99564C5.45121 7.88619 5.55052 7.80251 5.6744 7.7446L8.86211 6.39876C9.001 6.34321 9.12579 6.30022 9.23649 6.2698C9.34704 6.23939 9.45677 6.21619 9.56565 6.20022C9.91079 6.18411 10.2116 6.24925 10.4679 6.39564C10.7243 6.54203 10.9471 6.74612 11.1363 7.00793L11.1954 7.07022C11.3889 7.36842 11.5748 7.66626 11.7532 7.96376C11.9316 8.26126 12.1416 8.53876 12.3829 8.79626C12.6095 9.01418 12.868 9.19585 13.1586 9.34126C13.4493 9.48654 13.8147 9.5923 14.2548 9.65855C14.4097 9.67564 14.5379 9.73689 14.6394 9.8423C14.7409 9.94786 14.7917 10.0769 14.7917 10.2294C14.7917 10.3819 14.7388 10.511 14.6329 10.6167C14.5273 10.7225 14.4066 10.7642 14.2709 10.7417C13.5134 10.6424 12.8392 10.4103 12.2484 10.0454C11.6575 9.68057 11.197 9.19203 10.8669 8.5798L10.3094 11.58L11.5961 12.9415C11.6538 13.0081 11.7009 13.0799 11.7371 13.1569C11.7735 13.2338 11.7917 13.3225 11.7917 13.4229V17.2498C11.7917 17.4036 11.7402 17.5322 11.6373 17.6358C11.5345 17.7396 11.4069 17.7915 11.2544 17.7915C11.1019 17.7915 10.9728 17.7396 10.8671 17.6358C10.7613 17.5322 10.7084 17.4036 10.7084 17.2498V13.5767L8.89899 12.0015ZM10.9948 5.37168C10.5443 5.37168 10.1622 5.21314 9.84857 4.89605C9.53496 4.57911 9.37815 4.19529 9.37815 3.7446C9.37815 3.29404 9.5367 2.91196 9.85378 2.59835C10.1707 2.28473 10.5545 2.12793 11.0052 2.12793C11.4558 2.12793 11.8379 2.28647 12.1515 2.60355C12.4651 2.9205 12.6219 3.30432 12.6219 3.75501C12.6219 4.20557 12.4634 4.58765 12.1463 4.90126C11.8293 5.21487 11.4455 5.37168 10.9948 5.37168Z" fill="#ECE5DD"/>
</g>
</svg>
