<svg width="41" height="40" viewBox="0 0 41 40" fill="none" xmlns="http://www.w3.org/2000/svg">
<g id="close_40dp_53BCEC_FILL0_wght200_GRAD0_opsz40">
<path id="Vector" d="M20.5 21.0044L11.5812 29.9231C11.4479 30.0565 11.2858 30.1284 11.095 30.139C10.9041 30.1498 10.7315 30.0779 10.5771 29.9231C10.4223 29.7687 10.345 29.6013 10.345 29.421C10.345 29.241 10.4223 29.0737 10.5771 28.919L19.4958 20.0002L10.5771 11.0815C10.4437 10.9481 10.3718 10.786 10.3612 10.5952C10.3504 10.4044 10.4223 10.2317 10.5771 10.0773C10.7315 9.92257 10.8989 9.84521 11.0791 9.84521C11.2591 9.84521 11.4265 9.92257 11.5812 10.0773L20.5 18.996L29.4187 10.0773C29.5521 9.94396 29.7141 9.87202 29.905 9.86146C30.0958 9.85063 30.2684 9.92257 30.4229 10.0773C30.5776 10.2317 30.655 10.3991 30.655 10.5794C30.655 10.7594 30.5776 10.9267 30.4229 11.0815L21.5041 20.0002L30.4229 28.919C30.5562 29.0523 30.6282 29.2144 30.6387 29.4052C30.6496 29.596 30.5776 29.7687 30.4229 29.9231C30.2684 30.0779 30.1011 30.1552 29.9208 30.1552C29.7408 30.1552 29.5734 30.0779 29.4187 29.9231L20.5 21.0044Z" fill="#ECE5DD"/>
</g>
</svg>
