<svg width="40" height="40" viewBox="0 0 40 40" fill="none" xmlns="http://www.w3.org/2000/svg">
<g clip-path="url(#clip0_178_684)">
<path d="M20 21.0041L11.0812 29.9229C10.9479 30.0562 10.7858 30.1282 10.595 30.1387C10.4041 30.1496 10.2315 30.0776 10.0771 29.9229C9.92233 29.7684 9.84497 29.6011 9.84497 29.4208C9.84497 29.2408 9.92233 29.0734 10.0771 28.9187L18.9958 20L10.0771 11.0812C9.94372 10.9479 9.87178 10.7858 9.86122 10.595C9.85039 10.4041 9.92233 10.2315 10.0771 10.0771C10.2315 9.92233 10.3989 9.84497 10.5791 9.84497C10.7591 9.84497 10.9265 9.92233 11.0812 10.0771L20 18.9958L28.9187 10.0771C29.0521 9.94372 29.2141 9.87177 29.405 9.86122C29.5958 9.85039 29.7684 9.92233 29.9229 10.0771C30.0776 10.2315 30.155 10.3989 30.155 10.5791C30.155 10.7591 30.0776 10.9265 29.9229 11.0812L21.0041 20L29.9229 28.9187C30.0562 29.0521 30.1282 29.2141 30.1387 29.405C30.1496 29.5958 30.0776 29.7684 29.9229 29.9229C29.7684 30.0776 29.6011 30.155 29.4208 30.155C29.2408 30.155 29.0734 30.0776 28.9187 29.9229L20 21.0041Z" fill="#EB3700"/>
</g>
<defs>
<clipPath id="clip0_178_684">
<rect width="40" height="40" fill="white"/>
</clipPath>
</defs>
</svg>
