<svg width="41" height="41" viewBox="0 0 41 41" fill="none" xmlns="http://www.w3.org/2000/svg">
<rect width="41" height="41" fill="#CDCDCD"/>
<g id="iPhone 13 &#38; 14 - 48">
<rect x="-85" y="-694.466" width="390" height="844" rx="16" fill="#F8F4F0"/>
<g id="Container">
<g id="Buttons" clip-path="url(#clip0_124_55)">
<g id="No">
<rect x="-61" y="-15.4663" width="163" height="72" rx="36" fill="#EB3700" fill-opacity="0.12"/>
<g id="close_40dp_53BCEC_FILL0_wght200_GRAD0_opsz40">
<path id="Vector" d="M20.5 21.5378L11.5812 30.4566C11.4479 30.5899 11.2858 30.6619 11.095 30.6724C10.9041 30.6832 10.7315 30.6113 10.5771 30.4566C10.4223 30.3021 10.345 30.1348 10.345 29.9545C10.345 29.7745 10.4223 29.6071 10.5771 29.4524L19.4958 20.5337L10.5771 11.6149C10.4437 11.4816 10.3718 11.3195 10.3612 11.1287C10.3504 10.9378 10.4223 10.7652 10.5771 10.6107C10.7315 10.456 10.8989 10.3787 11.0791 10.3787C11.2591 10.3787 11.4265 10.456 11.5812 10.6107L20.5 19.5295L29.4187 10.6107C29.5521 10.4774 29.7141 10.4055 29.905 10.3949C30.0958 10.3841 30.2684 10.456 30.4229 10.6107C30.5776 10.7652 30.655 10.9326 30.655 11.1128C30.655 11.2928 30.5776 11.4602 30.4229 11.6149L21.5041 20.5337L30.4229 29.4524C30.5562 29.5857 30.6282 29.7478 30.6387 29.9387C30.6496 30.1295 30.5776 30.3021 30.4229 30.4566C30.2684 30.6113 30.1011 30.6887 29.9208 30.6887C29.7408 30.6887 29.5734 30.6113 29.4187 30.4566L20.5 21.5378Z" fill="#EB3700"/>
</g>
</g>
</g>
</g>
</g>
<defs>
<clipPath id="clip0_124_55">
<rect width="342" height="72" fill="white" transform="translate(-61 -15.4663)"/>
</clipPath>
</defs>
</svg>
