<svg width="40" height="40" viewBox="0 0 40 40" fill="none" xmlns="http://www.w3.org/2000/svg">
<path d="M15.5333 24.1905L17.0347 23.8496C17.0661 23.8425 17.1191 23.8307 17.1818 23.8106C17.5965 23.7015 17.9519 23.4386 18.173 23.0774C18.3941 22.7162 18.4638 22.2848 18.3672 21.8742L18.3612 21.8482C18.3116 21.6515 18.2249 21.4656 18.1056 21.3002C17.9374 21.0908 17.7294 20.9155 17.4929 20.7841C17.2146 20.6285 16.9233 20.4962 16.6223 20.3888L14.9762 19.7982C14.0525 19.4609 13.1287 19.133 12.1953 18.8123C11.5912 18.6016 11.0787 18.4158 10.6337 18.2797C10.549 18.2567 10.4649 18.2314 10.3816 18.2039C9.84381 18.043 9.46515 17.9755 9.14558 17.9731C8.93199 17.9653 8.71924 18.0033 8.52212 18.0844C8.31617 18.1719 8.13128 18.3009 7.97945 18.4631C7.90413 18.5471 7.83329 18.6348 7.76721 18.7259C7.63873 18.9196 7.53276 19.1268 7.45126 19.3437C7.14544 20.2303 6.99299 21.1608 7.00025 22.0967C7.00628 22.9418 7.02919 24.0272 7.50312 24.7634C7.61768 24.9527 7.77083 25.1161 7.95292 25.2427C8.29058 25.4712 8.63065 25.5019 8.9864 25.5268C9.517 25.5635 10.0295 25.4368 10.542 25.3197L15.5297 24.1893L15.5333 24.1905ZM32.2835 16.3682C31.8737 15.5239 31.3226 14.7529 30.6531 14.0874C30.5666 14.0028 30.4739 13.9244 30.3758 13.853C30.2851 13.7863 30.1909 13.7243 30.0936 13.6672C29.9934 13.6133 29.8904 13.5647 29.7849 13.5216C29.5767 13.4413 29.3535 13.405 29.1301 13.4151C28.9166 13.427 28.708 13.4861 28.5187 13.5844C28.2329 13.724 27.923 13.9489 27.5105 14.3241C27.4538 14.3797 27.3827 14.4425 27.3176 14.5017C26.9787 14.8153 26.6001 15.2023 26.1502 15.6521C25.4544 16.3421 24.7707 17.0357 24.0893 17.7352L22.8714 18.9756C22.6489 19.2019 22.4464 19.4462 22.266 19.7059C22.1115 19.9257 22.0021 20.1729 21.944 20.4338C21.9114 20.6342 21.9163 20.8388 21.9585 21.0374L21.9645 21.0635C22.0607 21.4737 22.3154 21.8312 22.6748 22.0608C23.0343 22.2904 23.4705 22.3741 23.8916 22.2944C23.9423 22.2874 23.9926 22.2779 24.0423 22.266L30.5326 20.7936C31.0451 20.6776 31.5636 20.5711 32.0231 20.3083C32.3318 20.1344 32.6248 19.9604 32.8262 19.61C32.9335 19.4171 32.9984 19.2042 33.0167 18.9851C33.1168 18.1163 32.655 17.1304 32.2835 16.3682ZM20.6645 19.0466C21.1348 18.4667 21.1348 17.6027 21.1758 16.8949C21.3181 14.5336 21.4665 12.1723 21.5858 9.8099C21.6305 8.91511 21.7281 8.03215 21.6739 7.13025C21.6293 6.38696 21.6244 5.53241 21.1457 4.92167C20.3015 3.84461 18.4999 3.93338 17.2711 4.10145C16.892 4.15284 16.5157 4.22236 16.1435 4.30976C15.7697 4.39734 15.3983 4.49321 15.0365 4.60802C13.8571 4.98677 12.199 5.68272 11.9192 7.01663C11.76 7.77058 12.1363 8.54109 12.4257 9.22994C12.779 10.0632 13.2602 10.8148 13.6991 11.5995C14.8604 13.672 16.0422 15.7326 17.2204 17.7944C17.5737 18.4099 17.956 19.1887 18.6374 19.5082C18.6832 19.5272 18.729 19.5437 18.776 19.5591C19.0811 19.6728 19.4152 19.6941 19.7323 19.6219L19.789 19.61C20.0833 19.5307 20.3486 19.3733 20.5572 19.1567C20.5958 19.1212 20.6295 19.0857 20.6645 19.0466ZM20.1014 25.3682C19.9178 25.1148 19.6573 24.9248 19.3571 24.8255C19.0569 24.7263 18.7323 24.7227 18.4299 24.8155C18.3588 24.8384 18.2895 24.8665 18.2225 24.8995C18.1189 24.9514 18.02 25.012 17.9271 25.0806C17.6616 25.2859 17.4245 25.5242 17.2216 25.7895C17.1698 25.8546 17.1215 25.941 17.0588 25.9979L16.0145 27.4063C15.4236 28.197 14.8387 28.9888 14.2611 29.7924C13.8824 30.312 13.5568 30.7512 13.2976 31.1382C13.2493 31.2116 13.1987 31.2921 13.1528 31.3583C12.8429 31.827 12.6681 32.1703 12.5776 32.4756C12.5101 32.6785 12.4887 32.8935 12.5149 33.1053C12.5439 33.3255 12.6198 33.5373 12.7368 33.7279C12.7995 33.8226 12.867 33.9149 12.9394 34.0037C13.0957 34.1802 13.2716 34.339 13.464 34.4771C14.1851 34.9695 14.9738 35.3234 15.8035 35.5968C16.4944 35.8217 17.212 35.9566 17.9379 35.9968C18.0621 36.0027 18.1864 36.0004 18.3094 35.9897C18.4234 35.9793 18.5369 35.9635 18.6494 35.9424C18.762 35.9167 18.8731 35.8851 18.9823 35.8477C19.1945 35.7697 19.3876 35.6487 19.549 35.4926C19.7022 35.3423 19.8204 35.1612 19.8939 34.9612C20.0145 34.6653 20.0941 34.2913 20.1472 33.735C20.1508 33.6557 20.1629 33.561 20.1713 33.4746C20.2123 33.013 20.2316 32.4685 20.2605 31.8318C20.3124 30.8506 20.3522 29.8741 20.3835 28.8953L20.4511 27.153C20.4667 26.753 20.4535 26.308 20.3401 25.9091C20.2903 25.7175 20.2097 25.5349 20.1014 25.3682ZM31.8868 28.094C31.6697 27.8585 31.361 27.6253 30.8738 27.3365C30.8039 27.2974 30.7207 27.2465 30.6447 27.2016C30.2395 26.9613 29.7511 26.7104 29.1807 26.4062C28.304 25.9328 27.4273 25.4735 26.541 25.0167L24.9769 24.2024C24.8961 24.1787 24.8141 24.1219 24.7369 24.0852C24.4362 23.9344 24.1167 23.8226 23.7866 23.7526C23.6729 23.731 23.5575 23.7192 23.4418 23.7171C23.3668 23.7167 23.2919 23.721 23.2174 23.7301C22.9043 23.7776 22.6145 23.9209 22.3893 24.1396C22.1641 24.3583 22.015 24.6412 21.9633 24.948C21.9404 25.1433 21.9476 25.341 21.9862 25.5327C22.0622 25.9422 22.2479 26.3458 22.4408 26.6997L23.2753 28.2372C23.7408 29.1036 24.2111 29.9653 24.6935 30.8245C25.0046 31.3844 25.2639 31.8637 25.5063 32.2614C25.5521 32.336 25.604 32.4165 25.6438 32.4863C25.9392 32.9633 26.1756 33.2639 26.4155 33.4805C26.5754 33.6314 26.7673 33.7458 26.9774 33.8153C27.1876 33.8849 27.4108 33.908 27.6311 33.8829C27.7459 33.8692 27.8598 33.8495 27.9724 33.8238C28.2031 33.7631 28.426 33.677 28.6369 33.5669C29.2716 33.2177 29.8567 32.7879 30.377 32.2886C31.0017 31.685 31.554 31.0269 31.9833 30.2742C32.0436 30.1676 32.0942 30.0576 32.1376 29.9428C32.178 29.8376 32.2131 29.7306 32.2425 29.622C32.2679 29.5108 32.2872 29.3995 32.3004 29.2871C32.3221 29.0661 32.2962 28.8431 32.2245 28.6325C32.1537 28.4305 32.0384 28.2462 31.8868 28.0928V28.094Z" fill="#EB3700"/>
</svg>
