<svg width="126" height="67" viewBox="0 0 126 67" fill="none" xmlns="http://www.w3.org/2000/svg">
<path d="M12.1631 51.0278C10.4991 51.0278 9.04845 50.6652 7.81112 49.9398C6.61645 49.1718 5.74178 48.2332 5.18712 47.1238L17.2191 11.5398C17.5605 10.5158 17.7098 9.74783 17.6671 9.23583C17.6671 8.68117 17.4965 8.29717 17.1551 8.08384C16.8565 7.82783 16.3445 7.65717 15.6191 7.57183L13.5711 7.37983L13.8911 6.35583L21.6351 4.69183H22.7231L17.0911 21.4598C16.5365 23.0812 15.6618 25.2998 14.4671 28.1158C13.3151 30.8892 11.9285 34.0892 10.3071 37.7158H11.1391C13.2298 33.5345 15.0645 30.1425 16.6431 27.5398C18.2218 24.8945 19.8005 22.8252 21.3791 21.3318C22.9578 19.7958 24.5365 19.0278 26.1151 19.0278C27.6511 19.0278 28.9098 19.5398 29.8911 20.5638C30.8725 21.5878 31.3631 23.2518 31.3631 25.5558C31.3631 29.0118 30.3178 32.7452 28.2271 36.7558C26.1365 40.7665 23.5765 44.1585 20.5471 46.9318C17.5178 49.6625 14.7231 51.0278 12.1631 51.0278ZM12.2271 49.3638C14.4885 49.3638 16.8565 48.0198 19.3311 45.3318C21.8058 42.6438 23.8751 39.4438 25.5391 35.7318C27.2031 32.0198 28.0351 28.8838 28.0351 26.3238C28.0351 24.8305 27.7791 23.7852 27.2671 23.1878C26.7978 22.5478 26.1578 22.2278 25.3471 22.2278C23.5125 22.2278 21.5071 23.5718 19.3311 26.2598C17.1978 28.9052 15.1711 32.1265 13.2511 35.9238C11.3311 39.7212 9.73112 43.3692 8.45112 46.8678C8.92045 47.6785 9.45378 48.2972 10.0511 48.7238C10.6911 49.1505 11.4165 49.3638 12.2271 49.3638ZM36.0286 50.7078C35.218 50.7078 34.4926 50.4945 33.8526 50.0678C33.2553 49.5985 32.9566 48.7665 32.9566 47.5718C32.9566 46.8892 33.106 46.0998 33.4046 45.2038C33.7033 44.2652 34.1513 43.0492 34.7486 41.5558L41.5966 25.7478C42.1086 24.5958 42.3433 23.7212 42.3006 23.1238C42.258 22.5265 41.938 22.2278 41.3406 22.2278C40.6153 22.2278 39.8686 22.6758 39.1006 23.5718C38.3326 24.4678 37.3726 26.0038 36.2206 28.1798L34.9406 27.7958C36.2206 24.8945 37.394 22.7185 38.4606 21.2678C39.57 19.7745 40.9353 19.0278 42.5566 19.0278C43.3673 19.0278 44.0713 19.2625 44.6686 19.7318C45.3086 20.1585 45.6286 20.9692 45.6286 22.1638C45.6286 22.8465 45.4793 23.6572 45.1806 24.5958C44.882 25.4918 44.434 26.6865 43.8366 28.1798L36.9886 43.9878C36.4766 45.1398 36.242 46.0145 36.2846 46.6118C36.3273 47.2092 36.6473 47.5078 37.2446 47.5078C37.97 47.5078 38.7166 47.0598 39.4846 46.1638C40.2526 45.2678 41.2126 43.7318 42.3646 41.5558L43.6446 41.9398C42.3646 44.8412 41.17 47.0385 40.0606 48.5318C38.994 49.9825 37.65 50.7078 36.0286 50.7078ZM46.7806 12.8198C45.7993 12.8198 44.9886 12.4998 44.3486 11.8598C43.7086 11.1772 43.3886 10.3665 43.3886 9.42783C43.3886 8.4465 43.7086 7.63583 44.3486 6.99583C44.9886 6.35583 45.7993 6.03584 46.7806 6.03584C47.762 6.03584 48.5726 6.35583 49.2126 6.99583C49.8526 7.63583 50.1726 8.4465 50.1726 9.42783C50.1726 10.3665 49.8526 11.1772 49.2126 11.8598C48.5726 12.4998 47.762 12.8198 46.7806 12.8198ZM66.4616 50.7078C65.6083 50.7078 64.8616 50.4518 64.2216 49.9398C63.5816 49.3852 63.2616 48.4892 63.2616 47.2518C63.2616 46.5265 63.411 45.6945 63.7096 44.7558C64.051 43.8172 64.563 42.5798 65.2456 41.0438L70.6856 28.8198C71.4536 26.9425 71.8376 25.4705 71.8376 24.4038C71.8376 23.6358 71.6243 23.0812 71.1976 22.7398C70.8136 22.3985 70.2376 22.2278 69.4696 22.2278C67.8056 22.2278 65.9283 23.6145 63.8376 26.3878C61.7896 29.1185 59.763 32.5958 57.7576 36.8198C55.7523 41.0438 53.9176 45.4812 52.2536 50.1318H49.1816L56.0296 27.3478C56.6696 25.2998 56.9896 23.9132 56.9896 23.1878C56.9896 22.8465 56.9256 22.6118 56.7976 22.4838C56.6696 22.3132 56.435 22.2278 56.0936 22.2278C55.4536 22.2278 54.7283 22.6758 53.9176 23.5718C53.1496 24.4678 52.2323 25.9825 51.1656 28.1158L49.8856 27.7958C50.995 24.9372 52.1043 22.7612 53.2136 21.2678C54.323 19.7745 55.7096 19.0278 57.3736 19.0278C58.227 19.0278 58.931 19.2625 59.4856 19.7318C60.0403 20.1585 60.3176 20.9905 60.3176 22.2278C60.3176 23.1665 60.0403 24.4252 59.4856 26.0038C58.9736 27.5825 57.523 31.4865 55.1336 37.7158H55.9656C57.8856 33.6198 59.5923 30.2705 61.0856 27.6678C62.6216 25.0225 64.179 22.9318 65.7576 21.3958C67.3363 19.8172 68.9576 19.0278 70.6216 19.0278C72.0296 19.0278 73.1176 19.4118 73.8856 20.1798C74.6963 20.9478 75.1016 22.0785 75.1016 23.5718C75.1016 24.2972 74.9736 25.1078 74.7176 26.0038C74.5043 26.8998 74.1203 28.0092 73.5656 29.3318L68.4456 41.1078C67.8056 42.6438 67.3363 43.7958 67.0376 44.5638C66.7816 45.3318 66.6536 45.9292 66.6536 46.3558C66.6536 46.7398 66.739 47.0385 66.9096 47.2518C67.0803 47.4225 67.3363 47.5078 67.6776 47.5078C68.3603 47.5078 69.0856 47.0598 69.8536 46.1638C70.6643 45.2252 71.6243 43.6465 72.7336 41.4278L74.0136 41.7478C72.819 44.6492 71.667 46.8678 70.5576 48.4038C69.4483 49.9398 68.083 50.7078 66.4616 50.7078ZM86.0221 63.9558C83.5048 63.9558 81.2221 63.6572 79.1741 63.0598C77.1261 62.4625 75.5048 61.5878 74.3101 60.4358C73.1155 59.3265 72.5181 58.0252 72.5181 56.5318C72.5181 54.4412 73.5208 52.6705 75.5261 51.2198C77.5315 49.7692 80.8381 48.7665 85.4461 48.2118V49.0438C83.3128 49.6838 81.5635 50.3452 80.1981 51.0278C78.8328 51.7532 77.7875 52.5638 77.0621 53.4598C76.3795 54.3558 76.0381 55.3798 76.0381 56.5318C76.0381 57.8545 76.5288 58.9638 77.5101 59.8598C78.5341 60.7558 79.7928 61.3958 81.2861 61.7798C82.8221 62.2065 84.4008 62.4198 86.0221 62.4198C87.6861 62.4198 89.0728 62.1852 90.1821 61.7158C91.3341 61.2892 92.1661 60.6918 92.6781 59.9238C93.2328 59.1558 93.5101 58.3025 93.5101 57.3638C93.5101 56.6385 93.3395 55.9558 92.9981 55.3158C92.6568 54.6758 92.1021 54.0145 91.3341 53.3318C90.6088 52.6492 89.6061 51.9025 88.3261 51.0918L85.7021 49.3638C83.9528 48.2545 82.6728 47.2732 81.8621 46.4198C81.0515 45.5238 80.6461 44.6065 80.6461 43.6678C80.6461 42.7718 80.9661 41.9612 81.6061 41.2358C82.2461 40.5105 83.2061 39.8278 84.4861 39.1878L85.5101 39.3158C84.6568 40.0412 84.0808 40.6598 83.7821 41.1718C83.4835 41.6838 83.3341 42.1532 83.3341 42.5798C83.3341 43.0065 83.4408 43.4118 83.6541 43.7958C83.8675 44.1372 84.2728 44.5638 84.8701 45.0758C85.4675 45.5452 86.4061 46.2065 87.6861 47.0598L90.9501 49.2998C93.1261 50.7505 94.6621 52.0305 95.5581 53.1398C96.4541 54.2492 96.9021 55.5505 96.9021 57.0438C96.9021 58.4092 96.4968 59.6038 95.6861 60.6278C94.8755 61.6945 93.6595 62.5052 92.0381 63.0598C90.4168 63.6572 88.4115 63.9558 86.0221 63.9558ZM87.1101 40.2758C85.3608 40.2758 83.9315 39.7425 82.8221 38.6758C81.7555 37.6092 81.2221 36.0092 81.2221 33.8758C81.2221 31.9985 81.5635 30.0572 82.2461 28.0518C82.9715 26.0038 83.9528 24.1905 85.1901 22.6118C86.0861 21.4598 87.0675 20.5852 88.1341 19.9878C89.2435 19.3478 90.4381 19.0278 91.7181 19.0278C93.5101 19.0278 94.9395 19.5612 96.0061 20.6278C97.1155 21.6945 97.6701 23.2945 97.6701 25.4278C97.6701 27.3052 97.3075 29.2678 96.5821 31.3158C95.8568 33.3212 94.8755 35.1132 93.6381 36.6918C92.7421 37.8438 91.7395 38.7398 90.6301 39.3798C89.5635 39.9772 88.3901 40.2758 87.1101 40.2758ZM86.7901 38.6118C87.6008 38.6118 88.3688 38.2918 89.0941 37.6518C89.8195 36.9692 90.5448 36.0732 91.2701 34.9638C92.2515 33.3425 93.0621 31.5078 93.7021 29.4598C94.3421 27.4118 94.6621 25.6625 94.6621 24.2118C94.6621 22.9745 94.4061 22.0785 93.8941 21.5238C93.3821 20.9692 92.7635 20.6918 92.0381 20.6918C91.2275 20.6918 90.4595 21.0118 89.7341 21.6518C89.0515 22.2918 88.3475 23.1878 87.6221 24.3398C86.6408 25.9612 85.8088 27.7958 85.1261 29.8438C84.4435 31.8918 84.1021 33.6412 84.1021 35.0918C84.1021 36.3292 84.3581 37.2252 84.8701 37.7798C85.4248 38.3345 86.0648 38.6118 86.7901 38.6118ZM95.5581 20.9478H103.302L102.726 22.9318H95.1741L95.5581 20.9478ZM107.683 51.0278C106.403 51.0278 105.251 50.7718 104.227 50.2598C103.245 49.7478 102.456 48.9372 101.859 47.8278C101.261 46.6758 100.963 45.2465 100.963 43.5398C100.963 40.3398 101.752 36.7985 103.331 32.9158C104.952 29.0332 107.043 25.7478 109.603 23.0598C112.163 20.3718 114.765 19.0278 117.411 19.0278C118.947 19.0278 120.184 19.3905 121.123 20.1158C122.061 20.8412 122.531 21.9505 122.531 23.4438C122.531 25.4065 121.741 27.3265 120.163 29.2038C118.627 31.0812 116.429 32.6172 113.571 33.8118C110.712 34.9638 107.448 35.5398 103.779 35.5398V34.0038C106.68 33.9612 109.304 33.3852 111.651 32.2758C114.04 31.1665 115.896 29.7585 117.219 28.0518C118.584 26.3452 119.267 24.6598 119.267 22.9958C119.267 22.2278 119.053 21.6518 118.627 21.2678C118.243 20.8838 117.709 20.6918 117.027 20.6918C115.149 20.6918 113.208 21.8865 111.203 24.2758C109.197 26.6225 107.533 29.5238 106.211 32.9798C104.931 36.3932 104.291 39.4865 104.291 42.2598C104.291 44.0518 104.717 45.3745 105.571 46.2278C106.424 47.0812 107.512 47.5078 108.835 47.5078C110.115 47.5078 111.352 46.9958 112.547 45.9718C113.784 44.9478 114.936 43.3692 116.003 41.2358L117.411 41.6198C116.6 43.5825 115.789 45.2252 114.979 46.5478C114.168 47.8705 113.165 48.9585 111.971 49.8118C110.776 50.6225 109.347 51.0278 107.683 51.0278Z" fill="#F5F3EF"/>
</svg>
