<svg width="90" height="71" viewBox="0 0 90 71" fill="none" xmlns="http://www.w3.org/2000/svg">
<g clip-path="url(#clip0_189_611)">
<path d="M37.9844 34.0729V33.0115L43.1594 30.3838V31.641L39.3142 33.5473L43.1594 35.4537V36.7315L37.9844 34.0832V34.0729Z" fill="#F5F3EF"/>
<path d="M44.7365 34.2272L45.9942 34.5364C45.9529 34.6703 45.9426 34.8043 45.9426 34.9486C45.9426 35.8038 46.6127 36.4118 47.6024 36.4118C48.592 36.4118 49.2312 35.8348 49.2312 34.8455C49.2312 33.7532 48.3446 33.2586 46.9735 33.2586V32.2178C48.2209 32.2178 48.8188 31.6613 48.8188 30.837C48.8188 30.1053 48.3034 29.6519 47.458 29.6519C46.6643 29.6519 46.1385 30.1362 46.1385 30.8782C46.1385 31.0431 46.1591 31.177 46.2004 31.2698L44.9736 31.5274C44.8911 31.3213 44.8499 31.1049 44.8499 30.8885C44.8499 29.6107 45.8602 28.5493 47.4684 28.5493C49.0765 28.5493 50.1177 29.4355 50.1177 30.6618C50.1177 31.5377 49.6332 32.2899 48.8085 32.63C49.8497 32.9597 50.5713 33.6914 50.5713 34.8146C50.5713 36.484 49.3755 37.5453 47.6024 37.5453C45.6849 37.5453 44.6128 36.3397 44.6128 34.9795C44.6128 34.7115 44.654 34.4642 44.7365 34.2375V34.2272Z" fill="#F5F3EF"/>
<path d="M0.666504 0.5H2.16129L4.00658 7.56904L5.85187 0.5H7.34666V9.15597H6.09928V3.73568C5.95496 4.36427 5.83125 4.83829 5.73847 5.16804L4.64573 9.14567H3.35712L2.26438 5.16804C2.18191 4.83829 2.0582 4.36427 1.90357 3.73568V9.14567H0.666504V0.5Z" fill="#F5F3EF"/>
<path d="M10.4084 0.5H11.7485L14.7278 9.15597H13.2845L12.5217 6.75497H9.65581L8.89295 9.15597H7.44971L10.4084 0.5ZM12.1299 5.56993L11.3052 3.02466L11.0784 2.21058L10.8516 3.02466L10.0269 5.56993H12.1299Z" fill="#F5F3EF"/>
<path d="M15.2124 0.5H17.1711C19.6865 0.5 21.1812 2.13845 21.1812 4.82798C21.1812 7.51752 19.6865 9.15597 17.1711 9.15597H15.2124V0.5ZM17.068 7.92971C18.8617 7.92971 19.8102 6.86832 19.8102 4.82798C19.8102 2.78765 18.8617 1.72626 17.068 1.72626H16.5526V7.92971H17.068Z" fill="#F5F3EF"/>
<path d="M22.5005 0.5H27.9127V1.68504H23.8304V4.08604H27.5622V5.27109H23.8304V7.97093H27.9436V9.15597H22.4902V0.5H22.5005Z" fill="#F5F3EF"/>
<path d="M61.7774 0.5H63.066L63.7464 6.06455L63.8289 6.87863L63.9526 6.05425L64.8082 0.510305H66.1174L66.9731 6.05425L67.0968 6.87863L67.1792 6.06455L67.8596 0.5H69.1482L67.8699 9.15597H66.4267L65.4577 2.75674L64.4886 9.15597H63.0454L61.7671 0.5H61.7774Z" fill="#F5F3EF"/>
<path d="M69.8184 7.98123H71.7462V1.67474H69.8906V0.5H74.9316V1.67474H73.076V7.98123H75.0038V9.15597H69.8081V7.98123H69.8184Z" fill="#F5F3EF"/>
<path d="M78.6943 1.72626H76.313V0.5H82.4159V1.72626H80.0345V9.15597H78.6943V1.72626Z" fill="#F5F3EF"/>
<path d="M83.3022 0.5H84.6424V4.13757H88.0031V0.5H89.3432V9.15597H88.0031V5.35353H84.6424V9.15597H83.3022V0.5Z" fill="#F5F3EF"/>
<path d="M20.5009 53.3633L22.8513 54.9399C24.243 55.8776 24.6141 57.1039 23.9028 58.1653C23.3977 58.9175 22.5936 59.1648 21.7586 59.0721C22.4183 59.9892 22.4802 60.8651 21.9235 61.6895C21.0369 63.0085 19.4081 63.0703 18.0474 62.1635L15.666 60.5663L20.4906 53.3736L20.5009 53.3633ZM18.6247 61.0918C19.5422 61.6998 20.3462 61.6586 20.8617 60.896C21.3668 60.1438 21.1091 59.3812 20.1916 58.763L19.0164 57.9798L17.4495 60.3087L18.6247 61.0918ZM20.872 57.8149C21.6555 58.3405 22.2534 58.2786 22.6864 57.6397C23.109 57.0009 22.9338 56.4238 22.1606 55.8982L20.9545 55.0945L19.6659 57.0112L20.872 57.8149Z" fill="#F5F3EF"/>
<path d="M26.047 62.761L25.7068 56.8667L27.0366 57.4644L27.2119 61.1535C27.2325 61.3905 27.2119 61.6172 27.2119 61.813C27.3562 61.679 27.5211 61.5141 27.7067 61.3699L30.5829 59.041L31.9127 59.6387L27.2737 63.2968L25.8717 66.4089L24.6553 65.8627L26.0573 62.7507L26.047 62.761Z" fill="#F5F3EF"/>
<path d="M39.0879 61.3701L44.4898 61.8132L44.3867 62.9983L40.3147 62.6582L40.1188 65.0489L43.8403 65.358L43.7372 66.5431L40.0157 66.2339L39.7889 68.9235L43.8919 69.2635L43.7888 70.4486L38.3457 69.9952L39.057 61.3701H39.0879Z" fill="#F5F3EF"/>
<path d="M45.1909 61.8748L46.6857 61.7512L49.1083 68.645L50.366 61.442L51.8608 61.3184L52.5721 69.9434L51.3247 70.0465L50.8814 64.6468C50.7886 65.2857 50.7062 65.77 50.6443 66.1101L49.8918 70.1701L48.6135 70.2732L47.2012 66.3986C47.0878 66.0688 46.9228 65.6154 46.7269 64.9971L47.1702 70.3968L45.9229 70.4999L45.2115 61.8748H45.1909Z" fill="#F5F3EF"/>
<path d="M54.5203 68.3667L56.3862 67.8824L54.809 61.7717L53.0152 62.2354L52.7266 61.1019L57.613 59.8447L57.9016 60.9782L56.1079 61.442L57.6851 67.5527L59.551 67.0683L59.8397 68.2019L54.809 69.5003L54.5203 68.3667Z" fill="#F5F3EF"/>
<path d="M59.0664 59.3401L60.2829 58.7939L63.324 65.5745L67.1795 63.8536L67.6846 64.9665L62.6127 67.2438L59.0664 59.3401Z" fill="#F5F3EF"/>
<path d="M69.7875 59.7108L64.5918 56.877L65.8082 56.063L69.0349 57.8766C69.2411 57.99 69.437 58.1136 69.6019 58.227C69.5607 58.0312 69.5194 57.8045 69.4885 57.5778L69.0349 53.9093L70.2514 53.0952L70.9008 58.9689L72.7977 61.8027L71.6843 62.5446L69.7875 59.7108Z" fill="#F5F3EF"/>
</g>
<defs>
<clipPath id="clip0_189_611">
<rect width="88.6667" height="70" fill="white" transform="translate(0.666504 0.5)"/>
</clipPath>
</defs>
</svg>
