<?xml version="1.0" encoding="UTF-8"?>
<svg id="Layer_2" xmlns="http://www.w3.org/2000/svg" viewBox="0 0 86.91 67.93">
  <defs>
    <style>
      .cls-1 {
        fill: #eb3700;
      }
    </style>
  </defs>
  <g id="Layer_1-2" data-name="Layer_1">
    <g>
      <g>
        <path class="cls-1" d="M36.56,32.58v-1.03l5.02-2.55v1.22l-3.73,1.85,3.73,1.85v1.24l-5.02-2.57Z"/>
        <path class="cls-1" d="M43.11,32.73l1.22.3c-.04.13-.05.26-.05.4,0,.83.65,1.42,1.61,1.42s1.58-.56,1.58-1.52c0-1.06-.86-1.54-2.19-1.54v-1.01c1.21,0,1.79-.54,1.79-1.34,0-.71-.5-1.15-1.32-1.15-.77,0-1.28.47-1.28,1.19,0,.16.02.29.06.38l-1.19.25c-.08-.2-.12-.41-.12-.62,0-1.24.98-2.27,2.54-2.27s2.57.86,2.57,2.05c0,.85-.47,1.58-1.27,1.91,1.01.32,1.71,1.03,1.71,2.12,0,1.62-1.16,2.65-2.88,2.65-1.86,0-2.9-1.17-2.9-2.49,0-.26.04-.5.12-.72Z"/>
      </g>
      <g>
        <g>
          <path class="cls-1" d="M0,0h1.45l1.79,6.86L5.03,0h1.45v8.4h-1.21V3.14c-.14.61-.26,1.07-.35,1.39l-1.06,3.86h-1.25l-1.06-3.86c-.08-.32-.2-.78-.35-1.39v5.25H0V0Z"/>
          <path class="cls-1" d="M9.69,0h1.3l2.89,8.4h-1.4l-.74-2.33h-2.78l-.74,2.33h-1.4L9.69,0ZM11.36,4.92l-.8-2.47-.22-.79-.22.79-.8,2.47h2.04Z"/>
          <path class="cls-1" d="M14.59,0h1.9c2.44,0,3.89,1.59,3.89,4.2s-1.45,4.2-3.89,4.2h-1.9V0ZM16.39,7.21c1.74,0,2.66-1.03,2.66-3.01s-.92-3.01-2.66-3.01h-.5v6.02h.5Z"/>
          <path class="cls-1" d="M21.9,0h5.25v1.15h-3.96v2.33h3.62v1.15h-3.62v2.62h3.99v1.15h-5.29V0Z"/>
        </g>
        <g>
          <path class="cls-1" d="M59.1,0h1.25l.66,5.4.08.79.12-.8.83-5.38h1.27l.83,5.38.12.8.08-.79.66-5.4h1.25l-1.24,8.4h-1.4l-.94-6.21-.94,6.21h-1.4l-1.24-8.4Z"/>
          <path class="cls-1" d="M67.26,7.26h1.87V1.14h-1.8V0h4.89v1.14h-1.8v6.12h1.87v1.14h-5.04v-1.14Z"/>
          <path class="cls-1" d="M76.23,1.19h-2.31V0h5.92v1.19h-2.31v7.21h-1.3V1.19Z"/>
          <path class="cls-1" d="M81.06,0h1.3v3.53h3.26V0h1.3v8.4h-1.3v-3.69h-3.26v3.69h-1.3V0Z"/>
        </g>
      </g>
      <g>
        <path class="cls-1" d="M19.31,51.06l2.27,1.56c1.35.92,1.69,2.12.99,3.14-.5.72-1.28.96-2.09.86.63.9.68,1.75.14,2.54-.87,1.27-2.46,1.31-3.77.42l-2.3-1.58,4.75-6.93ZM17.41,58.55c.88.6,1.66.57,2.17-.17.5-.72.25-1.47-.63-2.08l-1.13-.77-1.54,2.25,1.13.77ZM19.62,55.38c.75.52,1.34.47,1.77-.16.42-.61.26-1.18-.5-1.7l-1.16-.79-1.27,1.85,1.16.79Z"/>
        <path class="cls-1" d="M24.69,60.28l-.3-5.73,1.29.59.14,3.59c.01.23,0,.45,0,.64.14-.13.3-.28.48-.42l2.81-2.24,1.29.59-4.53,3.52-1.38,3.01-1.18-.54,1.38-3.01Z"/>
        <path class="cls-1" d="M37.58,59.06l5.24.44-.1,1.15-3.95-.33-.2,2.32,3.61.3-.1,1.15-3.61-.3-.22,2.61,3.98.33-.1,1.15-5.28-.44.71-8.38Z"/>
        <path class="cls-1" d="M43.6,59.55l1.45-.12,2.36,6.69,1.21-6.99,1.45-.12.7,8.37-1.21.1-.44-5.24c-.09.62-.17,1.09-.23,1.42l-.73,3.94-1.24.1-1.38-3.76c-.11-.32-.27-.76-.46-1.36l.44,5.24-1.21.1-.7-8.37Z"/>
        <path class="cls-1" d="M52.81,65.82l1.81-.47-1.55-5.92-1.74.46-.29-1.1,4.74-1.24.29,1.1-1.74.46,1.55,5.92,1.81-.47.29,1.1-4.88,1.28-.29-1.1Z"/>
        <path class="cls-1" d="M57.29,57.01l1.18-.54,3,6.56,3.72-1.7.49,1.08-4.9,2.24-3.49-7.64Z"/>
        <path class="cls-1" d="M67.77,57.22l-5.07-2.7,1.17-.8,3.15,1.73c.2.11.39.23.55.34-.04-.19-.09-.41-.12-.63l-.48-3.56,1.17-.8.69,5.7,1.87,2.73-1.07.73-1.87-2.73Z"/>
      </g>
    </g>
  </g>
</svg>