<svg width="182" height="61" viewBox="0 0 182 61" fill="none" xmlns="http://www.w3.org/2000/svg">
<path d="M161.92 47.3204C159.53 47.3204 157.354 46.8937 155.392 46.0404C153.472 45.187 151.936 43.8644 150.784 42.0724C149.674 40.2804 149.12 38.0404 149.12 35.3524C149.12 32.2377 150.037 29.1444 151.872 26.0724C153.706 22.9577 156.309 20.3977 159.68 18.3924C163.093 16.3444 167.018 15.3204 171.456 15.3204C174.656 15.3204 177.173 15.875 179.008 16.9844C180.842 18.0937 181.76 19.6084 181.76 21.5284C181.76 23.6617 180.672 25.6244 178.496 27.4164C176.32 29.1657 173.205 30.5097 169.152 31.4484C165.141 32.387 160.49 32.6644 155.2 32.2804V29.4644C158.912 29.4644 162.069 29.0804 164.672 28.3124C167.317 27.5444 169.28 26.563 170.56 25.3684C171.882 24.131 172.544 22.851 172.544 21.5284C172.544 20.7177 172.266 20.1204 171.712 19.7364C171.2 19.3097 170.453 19.0964 169.472 19.0964C167.253 19.0964 165.184 19.8857 163.264 21.4644C161.344 23.0004 159.808 24.8564 158.656 27.0324C157.546 29.2084 156.992 31.1284 156.992 32.7924C156.992 35.3524 157.674 37.123 159.04 38.1044C160.405 39.0857 162.282 39.5764 164.672 39.5764C166.25 39.5764 167.765 39.3204 169.216 38.8084C170.666 38.2964 172.288 37.2724 174.08 35.7364L176.64 36.9524C175.658 38.9577 174.485 40.7284 173.12 42.2644C171.797 43.8004 170.197 45.0377 168.32 45.9764C166.442 46.8724 164.309 47.3204 161.92 47.3204Z" fill="#EB3700"/>
<path d="M125.74 60.2484C122.156 60.2484 118.806 59.907 115.692 59.2244C112.62 58.5417 110.166 57.539 108.332 56.2164C106.454 54.9364 105.516 53.4004 105.516 51.6084C105.516 49.5604 106.817 47.8964 109.42 46.6164C112.022 45.379 116.204 44.6537 121.964 44.4404L122.092 46.0404C120.172 46.339 118.572 46.723 117.292 47.1924C116.054 47.6617 115.116 48.2377 114.476 48.9204C113.878 49.6457 113.58 50.499 113.58 51.4804C113.58 52.803 114.177 53.891 115.372 54.7444C116.609 55.5977 118.166 56.2164 120.044 56.6004C121.921 56.9844 123.884 57.1764 125.932 57.1764C127.809 57.1764 129.366 57.0057 130.604 56.6644C131.841 56.3657 132.737 55.9177 133.292 55.3204C133.889 54.7657 134.188 54.1257 134.188 53.4004C134.188 52.7177 133.932 52.1204 133.42 51.6084C132.95 51.139 132.353 50.755 131.628 50.4564C130.902 50.1577 129.942 49.8377 128.748 49.4964L121.772 47.3844C119.681 46.7444 118.038 45.9124 116.844 44.8884C115.649 43.8217 115.052 42.6057 115.052 41.2404C115.052 39.7897 115.67 38.595 116.908 37.6564C118.188 36.7177 119.788 35.971 121.708 35.4164L124.076 35.8004C123.564 36.1844 123.158 36.5684 122.86 36.9524C122.561 37.3364 122.412 37.7417 122.412 38.1684C122.412 38.6377 122.561 39.043 122.86 39.3844C123.158 39.683 123.542 39.9604 124.012 40.2164C124.524 40.4297 125.164 40.6644 125.932 40.9204L135.212 43.8004C138.028 44.6964 140.076 45.699 141.356 46.8084C142.636 47.9177 143.276 49.3044 143.276 50.9684C143.276 52.8884 142.572 54.5524 141.164 55.9604C139.798 57.3684 137.793 58.435 135.148 59.1604C132.545 59.8857 129.409 60.2484 125.74 60.2484ZM127.276 36.6964C123.692 36.6964 120.79 35.907 118.572 34.3284C116.353 32.707 115.244 30.4244 115.244 27.4804C115.244 25.9444 115.542 24.451 116.14 23.0004C116.737 21.507 117.633 20.1844 118.828 19.0324C120.022 17.8804 121.473 16.9844 123.18 16.3444C124.886 15.6617 126.913 15.3204 129.26 15.3204C132.844 15.3204 135.745 16.131 137.964 17.7524C140.182 19.331 141.292 21.5924 141.292 24.5364C141.292 26.0724 140.993 27.587 140.396 29.0804C139.798 30.531 138.902 31.8324 137.708 32.9844C136.513 34.1364 135.062 35.0537 133.356 35.7364C131.649 36.3764 129.622 36.6964 127.276 36.6964ZM125.868 33.9444C126.892 33.9444 127.873 33.539 128.812 32.7284C129.793 31.9177 130.668 30.851 131.436 29.5284C132.118 28.291 132.673 26.9684 133.1 25.5604C133.526 24.1097 133.74 22.851 133.74 21.7844C133.74 20.419 133.441 19.459 132.844 18.9044C132.246 18.3497 131.521 18.0724 130.668 18.0724C129.644 18.0724 128.641 18.4777 127.66 19.2884C126.721 20.099 125.868 21.1657 125.1 22.4884C124.417 23.7257 123.862 25.0697 123.436 26.5204C123.009 27.9284 122.796 29.1657 122.796 30.2324C122.796 31.5977 123.094 32.5577 123.692 33.1124C124.289 33.667 125.014 33.9444 125.868 33.9444ZM134.572 17.2404H149.292L147.884 22.0404H135.788L134.572 17.2404Z" fill="#EB3700"/>
<path d="M96.2058 47.0004C94.3284 47.0004 92.8778 46.5524 91.8538 45.6564C90.8724 44.7604 90.3818 43.4804 90.3818 41.8164C90.3818 41.0057 90.5738 40.1097 90.9578 39.1284C91.3418 38.147 91.9178 36.9524 92.6858 35.5444L96.7818 28.3124C97.5498 26.9897 97.9338 25.795 97.9338 24.7284C97.9338 24.131 97.7204 23.6617 97.2938 23.3204C96.9098 22.9364 96.3338 22.7444 95.5658 22.7444C93.3471 22.7444 91.1284 23.8537 88.9098 26.0724C86.7338 28.2484 84.6858 30.979 82.7658 34.2644C80.8458 37.507 78.6911 41.5604 76.3018 46.4244H69.0058L75.0858 26.9044C75.5551 25.3684 75.7898 24.4084 75.7898 24.0244C75.7898 23.5977 75.6618 23.2777 75.4058 23.0644C75.1924 22.851 74.8511 22.7444 74.3818 22.7444C73.6564 22.7444 72.8244 23.1284 71.8858 23.8964C70.9471 24.6217 69.8591 25.8804 68.6218 27.6724L65.8698 26.3924C67.5764 22.8084 69.4538 20.0777 71.5018 18.2004C73.5498 16.2804 75.9178 15.3204 78.6058 15.3204C80.4404 15.3204 81.7844 15.747 82.6378 16.6004C83.5338 17.411 83.9818 18.5844 83.9818 20.1204C83.9818 21.5284 83.6404 23.0857 82.9578 24.7924C82.3178 26.4564 80.8884 29.5284 78.6698 34.0084H79.7578C82.4884 29.3577 84.7071 25.8164 86.4138 23.3844C88.1631 20.9524 90.0618 19.011 92.1098 17.5604C94.1578 16.067 96.4831 15.3204 99.0858 15.3204C101.176 15.3204 102.926 15.8324 104.334 16.8564C105.742 17.8804 106.446 19.3524 106.446 21.2724C106.446 22.211 106.232 23.2777 105.806 24.4724C105.422 25.667 104.824 27.011 104.014 28.5044L99.7898 36.3124C99.5764 36.6964 99.3844 37.0804 99.2138 37.4644C99.0858 37.8484 99.0218 38.1684 99.0218 38.4244C99.0218 38.851 99.1284 39.1497 99.3418 39.3204C99.5978 39.491 99.9391 39.5764 100.366 39.5764C101.134 39.5764 101.966 39.2137 102.862 38.4884C103.8 37.7204 104.888 36.4404 106.126 34.6484L108.878 35.9284C107.171 39.5124 105.294 42.2644 103.246 44.1844C101.198 46.0617 98.8511 47.0004 96.2058 47.0004Z" fill="#EB3700"/>
<path d="M49.7508 47.0004C47.9162 47.0004 46.4868 46.5737 45.4628 45.7204C44.4815 44.867 43.9908 43.6937 43.9908 42.2004C43.9908 41.3044 44.1402 40.4084 44.4388 39.5124C44.7802 38.6164 45.1855 37.6564 45.6548 36.6324L50.9668 25.7524C51.4362 24.8137 51.5855 24.0884 51.4148 23.5764C51.2868 23.0217 50.9028 22.7444 50.2628 22.7444C49.4948 22.7444 48.6628 23.1284 47.7668 23.8964C46.8708 24.6217 45.8042 25.8804 44.5668 27.6724L41.8148 26.3924C43.5215 22.8084 45.3988 20.0777 47.4468 18.2004C49.4948 16.2804 51.8628 15.3204 54.5508 15.3204C56.3855 15.3204 57.7935 15.747 58.7748 16.6004C59.7988 17.4537 60.3108 18.627 60.3108 20.1204C60.3108 21.0164 60.1402 21.9124 59.7988 22.8084C59.5002 23.7044 59.1162 24.6644 58.6468 25.6884L53.3348 36.5684C52.8655 37.507 52.6948 38.2537 52.8228 38.8084C52.9935 39.3204 53.3988 39.5764 54.0388 39.5764C54.8068 39.5764 55.6388 39.2137 56.5348 38.4884C57.4308 37.7204 58.4975 36.4404 59.7348 34.6484L62.4868 35.9284C60.7802 39.5124 58.9028 42.2644 56.8548 44.1844C54.8068 46.0617 52.4388 47.0004 49.7508 47.0004ZM59.0948 12.8244C57.4735 12.8244 56.1722 12.3337 55.1908 11.3524C54.2095 10.3284 53.7188 9.00569 53.7188 7.38436C53.7188 5.76303 54.2095 4.4617 55.1908 3.48036C56.1722 2.49903 57.4735 2.00836 59.0948 2.00836C60.7162 2.00836 62.0175 2.49903 62.9988 3.48036C63.9802 4.4617 64.4708 5.76303 64.4708 7.38436C64.4708 9.00569 63.9588 10.3284 62.9348 11.3524C61.9535 12.3337 60.6735 12.8244 59.0948 12.8244Z" fill="#EB3700"/>
<path d="M11.9522 47.3204C9.34957 47.3204 7.0029 46.9151 4.91223 46.1044C2.86423 45.2511 1.3069 44.2058 0.240234 42.9684L11.3762 9.94444C11.8029 8.66444 11.9522 7.70444 11.8242 7.06444C11.7389 6.38177 11.3976 5.91244 10.8002 5.65644C10.2029 5.35777 9.32824 5.1871 8.17624 5.14444L5.29623 5.01644L6.00023 2.64844L19.6322 0.984436H21.8722L17.0082 15.3204C16.1976 17.7524 15.0456 20.4831 13.5522 23.5124C12.1016 26.4991 10.2669 29.9978 8.04823 34.0084H9.13624C11.8669 29.2724 14.2989 25.5604 16.4322 22.8724C18.6082 20.1418 20.6989 18.2004 22.7042 17.0484C24.7096 15.8964 26.8429 15.3204 29.1042 15.3204C31.7069 15.3204 33.7549 16.0884 35.2482 17.6244C36.7842 19.1178 37.5522 21.3364 37.5522 24.2804C37.5522 27.9498 36.3149 31.5764 33.8402 35.1604C31.4082 38.7444 28.2082 41.6671 24.2402 43.9284C20.2722 46.1898 16.1762 47.3204 11.9522 47.3204ZM13.0402 43.6084C15.7282 43.6084 18.3309 42.7338 20.8482 40.9844C23.4082 39.2351 25.4776 37.0804 27.0562 34.5204C28.6349 31.9178 29.4242 29.4644 29.4242 27.1604C29.4242 25.7524 29.0829 24.6644 28.4002 23.8964C27.7602 23.1284 26.8002 22.7444 25.5202 22.7444C23.3442 22.7444 21.0616 23.7898 18.6722 25.8804C16.2829 27.9711 14.1282 30.4884 12.2082 33.4324C10.3309 36.3338 8.9869 38.9364 8.17624 41.2404C8.68823 41.9658 9.32823 42.5418 10.0962 42.9684C10.8642 43.3951 11.8456 43.6084 13.0402 43.6084Z" fill="#EB3700"/>
</svg>
