<svg width="20" height="21" viewBox="0 0 20 21" fill="none" xmlns="http://www.w3.org/2000/svg">
<path d="M4.68019 15.6383V16.5069C4.68019 16.6823 4.61873 16.8314 4.49581 16.9542C4.3729 17.077 4.22359 17.1383 4.0479 17.1383C3.87234 17.1383 3.72338 17.077 3.60102 16.9542C3.47866 16.8314 3.41748 16.6823 3.41748 16.5069V10.8811C3.41748 10.7987 3.42658 10.7163 3.44477 10.6338C3.46297 10.5514 3.48533 10.4636 3.51186 10.3704L4.96644 6.80647C5.06366 6.55564 5.22595 6.35383 5.45331 6.20105C5.68067 6.04814 5.92887 5.97168 6.1979 5.97168H13.8037C14.0728 5.97168 14.321 6.04814 14.5483 6.20105C14.7757 6.35383 14.938 6.55564 15.0352 6.80647L16.4898 10.3704C16.5163 10.4636 16.5387 10.5514 16.5569 10.6338C16.5751 10.7163 16.5841 10.7987 16.5841 10.8811V16.5069C16.5841 16.6823 16.5227 16.8314 16.3998 16.9542C16.2767 17.077 16.1274 17.1383 15.9519 17.1383C15.7762 17.1383 15.6271 17.077 15.5048 16.9542C15.3826 16.8314 15.3214 16.6823 15.3214 16.5069V15.6383H4.68019ZM4.86144 10.0358H15.1402L14.0281 7.22335C14.0067 7.16987 13.9746 7.12849 13.9319 7.09918C13.8891 7.06974 13.8383 7.05501 13.7796 7.05501H6.22206C6.16331 7.05501 6.11255 7.06974 6.06977 7.09918C6.02699 7.12849 5.99491 7.16987 5.97352 7.22335L4.86144 10.0358ZM6.47061 13.6769C6.70436 13.6769 6.90248 13.595 7.06498 13.4313C7.22734 13.2677 7.30852 13.069 7.30852 12.8352C7.30852 12.6015 7.22672 12.4033 7.06311 12.2408C6.89936 12.0785 6.70061 11.9973 6.46686 11.9973C6.23311 11.9973 6.03505 12.0791 5.87269 12.2427C5.71019 12.4065 5.62894 12.6052 5.62894 12.839C5.62894 13.0727 5.71081 13.2708 5.87456 13.4331C6.03818 13.5956 6.23686 13.6769 6.47061 13.6769ZM13.5348 13.6769C13.7685 13.6769 13.9666 13.595 14.1289 13.4313C14.2914 13.2677 14.3727 13.069 14.3727 12.8352C14.3727 12.6015 14.2908 12.4033 14.1271 12.2408C13.9635 12.0785 13.7648 11.9973 13.531 11.9973C13.2973 11.9973 13.0991 12.0791 12.9366 12.2427C12.7743 12.4065 12.6931 12.6052 12.6931 12.839C12.6931 13.0727 12.7749 13.2708 12.9385 13.4331C13.1023 13.5956 13.301 13.6769 13.5348 13.6769ZM4.50081 14.555H15.5008V11.1192H4.50081V14.555Z" fill="#211D1C"/>
</svg>
