<svg width="32" height="33" viewBox="0 0 32 33" fill="none" xmlns="http://www.w3.org/2000/svg">
<path d="M11.5393 23.6317C10.9933 23.6317 10.532 23.4435 10.1553 23.067C9.77887 22.6904 9.59064 22.229 9.59064 21.683V6.50336C9.59064 5.95713 9.77887 5.4958 10.1553 5.11935C10.532 4.74291 10.9933 4.55469 11.5393 4.55469H22.719C23.2652 4.55469 23.7265 4.74291 24.103 5.11935C24.4794 5.4958 24.6676 5.95713 24.6676 6.50336V21.683C24.6676 22.229 24.4794 22.6904 24.103 23.067C23.7265 23.4435 23.2652 23.6317 22.719 23.6317H11.5393ZM11.5393 22.5034H22.719C22.9241 22.5034 23.1121 22.4179 23.283 22.247C23.4539 22.0761 23.5393 21.8881 23.5393 21.683V6.50336C23.5393 6.29824 23.4539 6.11024 23.283 5.93935C23.1121 5.76846 22.9241 5.68302 22.719 5.68302H11.5393C11.3342 5.68302 11.1462 5.76846 10.9753 5.93935C10.8044 6.11024 10.719 6.29824 10.719 6.50336V21.683C10.719 21.8881 10.8044 22.0761 10.9753 22.247C11.1462 22.4179 11.3342 22.5034 11.5393 22.5034ZM7.94964 27.2214C7.40342 27.2214 6.94209 27.0331 6.56564 26.6567C6.1892 26.2802 6.00098 25.8189 6.00098 25.2727V8.96502H7.12931V25.2727C7.12931 25.4778 7.21475 25.6658 7.38564 25.8367C7.55653 26.0076 7.74453 26.093 7.94964 26.093H20.2573V27.2214H7.94964Z" fill="#DB3300"/>
<path d="M21.371 11.8657L15.759 17.4777L13.001 14.7194L13.795 13.9084L15.759 15.8724L20.56 11.0547L21.371 11.8657Z" fill="#DB3300"/>
</svg>
