<svg width="21" height="21" viewBox="0 0 21 21" fill="none" xmlns="http://www.w3.org/2000/svg">
<path d="M10.4964 14.2755C10.6623 14.2755 10.8028 14.2194 10.9179 14.1071C11.033 13.9949 11.0906 13.8559 11.0906 13.69C11.0906 13.5242 11.0345 13.3837 10.9223 13.2686C10.8101 13.1536 10.671 13.0961 10.5052 13.0961C10.3394 13.0961 10.1989 13.1521 10.0837 13.2642C9.96859 13.3764 9.91102 13.5155 9.91102 13.6813C9.91102 13.8471 9.96713 13.9876 10.0794 14.1028C10.1916 14.2179 10.3306 14.2755 10.4964 14.2755ZM9.95915 11.564H11.0425V6.564H9.95915V11.564ZM10.5079 18.0832C9.4647 18.0832 8.4822 17.8858 7.5604 17.4911C6.63859 17.0964 5.83179 16.5532 5.13998 15.8617C4.44817 15.1702 3.90477 14.364 3.50977 13.4432C3.11491 12.5225 2.91748 11.5387 2.91748 10.4917C2.91748 9.44477 3.11484 8.46386 3.50956 7.549C3.90429 6.63414 4.44741 5.83081 5.13894 5.139C5.83047 4.4472 6.63665 3.9038 7.55748 3.5088C8.47818 3.11393 9.46199 2.9165 10.5089 2.9165C11.5559 2.9165 12.5368 3.11386 13.4516 3.50859C14.3665 3.90331 15.1698 4.44643 15.8616 5.13796C16.5535 5.82949 17.0969 6.634 17.4919 7.5515C17.8867 8.46914 18.0841 9.44956 18.0841 10.4928C18.0841 11.5359 17.8868 12.5184 17.4921 13.4403C17.0973 14.3621 16.5542 15.1689 15.8627 15.8607C15.1712 16.5525 14.3666 17.0959 13.4491 17.4909C12.5315 17.8857 11.5511 18.0832 10.5079 18.0832ZM10.5008 16.9998C12.3064 16.9998 13.8411 16.3679 15.105 15.104C16.3689 13.8401 17.0008 12.3054 17.0008 10.4998C17.0008 8.69428 16.3689 7.15956 15.105 5.89567C13.8411 4.63178 12.3064 3.99984 10.5008 3.99984C8.69526 3.99984 7.16054 4.63178 5.89665 5.89567C4.63276 7.15956 4.00081 8.69428 4.00081 10.4998C4.00081 12.3054 4.63276 13.8401 5.89665 15.104C7.16054 16.3679 8.69526 16.9998 10.5008 16.9998Z" fill="#DB3300" fill-opacity="0.8"/>
</svg>
