<svg width="81" height="80" viewBox="0 0 81 80" fill="none" xmlns="http://www.w3.org/2000/svg">
<path d="M36.7408 40C36.7408 47.8557 35.0838 54.9081 32.4626 59.9528C29.8107 65.0568 26.3584 67.8 22.8727 67.8C19.387 67.8 15.9348 65.0568 13.2829 59.9528C10.6617 54.9081 9.00469 47.8557 9.00469 40C9.00469 32.1443 10.6617 25.0919 13.2829 20.0472C15.9348 14.9432 19.387 12.2 22.8727 12.2C26.3584 12.2 29.8107 14.9432 32.4626 20.0472C35.0838 25.0919 36.7408 32.1443 36.7408 40Z" stroke="#DB3300" stroke-width="2.4"/>
<ellipse cx="16.8353" cy="41.9" rx="8.70637" ry="12.1793" fill="#DB3300"/>
<path d="M72.7398 40C72.7398 47.8557 71.0828 54.9081 68.4617 59.9528C65.8097 65.0568 62.3575 67.8 58.8718 67.8C55.3861 67.8 51.9338 65.0568 49.2819 59.9528C46.6607 54.9081 45.0037 47.8557 45.0037 40C45.0037 32.1443 46.6607 25.0919 49.2819 20.0472C51.9338 14.9432 55.3861 12.2 58.8718 12.2C62.3575 12.2 65.8097 14.9432 68.4617 20.0472C71.0828 25.0919 72.7398 32.1443 72.7398 40Z" stroke="#DB3300" stroke-width="2.4"/>
<ellipse cx="52.8343" cy="41.9" rx="8.70637" ry="12.1793" fill="#DB3300"/>
</svg>
