<svg width="40" height="41" viewBox="0 0 40 41" fill="none" xmlns="http://www.w3.org/2000/svg">
<g clip-path="url(#clip0_188_1433)">
<path d="M22.5619 5.08681C21.4976 4.74819 20.3366 4.55469 19.1515 4.55469C15.741 4.55469 12.6692 6.10268 10.6133 8.54562L15.8861 12.9719L22.5619 5.08681Z" fill="#F5F3EF"/>
<path d="M10.6132 8.5459C8.99266 10.4809 8.00098 12.9964 8.00098 15.7054C8.00098 17.8097 8.41216 19.5028 9.1136 21.0266L15.8861 12.9722L10.6132 8.5459Z" fill="#F5F3EF"/>
<path d="M19.1757 11.4482C21.5461 11.4482 23.4569 13.359 23.4569 15.7294C23.4569 16.7695 23.0699 17.7369 22.441 18.4868C22.441 18.4868 25.8031 14.4716 29.0926 10.5775C27.7381 7.96522 25.3919 5.98185 22.562 5.08691L15.8862 12.972C16.6844 12.0529 17.8454 11.4482 19.1757 11.4482Z" fill="#F5F3EF"/>
<path d="M19.1758 19.986C16.8054 19.986 14.8946 18.0752 14.8946 15.7049C14.8946 14.6648 15.2574 13.6973 15.8863 12.9717L9.11377 21.0261C10.2748 23.59 12.2098 25.6701 14.1931 28.2582L22.4411 18.4622C21.6429 19.4055 20.4819 19.986 19.1758 19.986Z" fill="#F5F3EF"/>
<path d="M22.2957 30.9672C26.0205 25.138 30.3501 22.5016 30.3501 15.7291C30.3501 13.8666 29.8905 12.1251 29.0923 10.5771L14.1929 28.2582C14.8217 29.0805 15.4748 30.0239 16.1037 30.9914C18.3773 34.4985 17.7484 36.5787 19.1997 36.5787C20.6509 36.5787 20.022 34.4744 22.2957 30.9672Z" fill="#F5F3EF"/>
</g>
<defs>
<clipPath id="clip0_188_1433">
<rect width="22.325" height="32" fill="white" transform="translate(8.00098 4.55469)"/>
</clipPath>
</defs>
</svg>
