<svg width="21" height="20" viewBox="0 0 21 20" fill="none" xmlns="http://www.w3.org/2000/svg">
<path d="M10.5674 9.12117C9.71589 9.12117 8.99295 8.824 8.3986 8.22965C7.80409 7.63514 7.50684 6.91212 7.50684 6.06059C7.50684 5.20905 7.80409 4.48611 8.3986 3.89177C8.99295 3.29726 9.71589 3 10.5674 3C11.419 3 12.1419 3.29726 12.7362 3.89177C13.3308 4.48611 13.628 5.20905 13.628 6.06059C13.628 6.91212 13.3308 7.63514 12.7362 8.22965C12.1419 8.824 11.419 9.12117 10.5674 9.12117ZM10.5726 7.8377C11.0628 7.8377 11.4807 7.6632 11.8262 7.31419C12.1718 6.96519 12.3445 6.54559 12.3445 6.0554C12.3445 5.56522 12.17 5.14735 11.821 4.8018C11.472 4.45625 11.0524 4.28347 10.5622 4.28347C10.0721 4.28347 9.65418 4.45806 9.30863 4.80723C8.96308 5.15623 8.79031 5.57583 8.79031 6.06602C8.79031 6.55604 8.96481 6.97383 9.31382 7.31938C9.66282 7.66493 10.0824 7.8377 10.5726 7.8377Z" fill="#DB3300"/>
<path d="M4.86241 13.1757C4.70023 13.4561 4.61914 13.7475 4.61914 14.0499C4.61914 15.0441 5.42506 15.85 6.41921 15.85H14.7164C15.7105 15.85 16.5165 15.0441 16.5165 14.0499C16.5165 13.7475 16.4354 13.452 16.2732 13.1634C16.111 12.8747 15.8842 12.6361 15.5926 12.4476C14.8187 11.9528 14.0037 11.5734 13.1477 11.3095C12.2917 11.0455 11.4301 10.9136 10.5631 10.9136C9.69615 10.9136 8.83618 11.0455 7.98324 11.3095C7.1303 11.5734 6.31688 11.9528 5.54296 12.4476C5.25144 12.6526 5.0246 12.8953 4.86241 13.1757Z" fill="#DB3300"/>
<path d="M15.5192 14.753H5.61741C5.28721 14.753 5.01953 14.4854 5.01953 14.1552C5.01953 14.0466 5.05841 13.9441 5.13616 13.8475C5.21391 13.751 5.32189 13.6499 5.46009 13.5444C6.86296 12.4264 8.77441 12.0107 10.5683 12.0107C11.0187 12.0107 11.4631 12.0418 11.9013 12.104C12.8123 12.2333 13.7346 12.422 14.555 12.8386C14.8458 12.9863 15.1146 13.1499 15.332 13.2961C15.5669 13.4538 15.8322 13.5872 15.9999 13.8149C16.078 13.9212 16.1171 14.0346 16.1171 14.1552C16.1171 14.4854 15.8494 14.753 15.5192 14.753Z" fill="#DB3300"/>
<circle cx="10.6027" cy="5.99135" r="2.13491" fill="#DB3300"/>
</svg>
