<svg width="21" height="20" viewBox="0 0 21 20" fill="none" xmlns="http://www.w3.org/2000/svg">
<path d="M6.15535 17.5832V9.73546C5.48869 9.5688 4.96035 9.24525 4.57035 8.76484C4.18035 8.28456 3.98535 7.72025 3.98535 7.07192V2.4165H5.06868V6.78025H6.15535V2.4165H7.23848V6.78025H8.32514V2.4165H9.40848V7.07192C9.40848 7.72025 9.21348 8.28456 8.82348 8.76484C8.43348 9.24525 7.90514 9.5688 7.23848 9.73546V17.5832H6.15535ZM13.6408 17.5832V10.4807C12.9047 10.2391 12.3174 9.75671 11.8789 9.03338C11.4403 8.30991 11.221 7.46359 11.221 6.49442C11.221 5.35803 11.5089 4.39428 12.0847 3.60317C12.6606 2.81206 13.3598 2.4165 14.1824 2.4165C15.0105 2.4165 15.7124 2.81074 16.2883 3.59921C16.8641 4.38768 17.152 5.35074 17.152 6.48838C17.152 7.46393 16.9314 8.31414 16.4901 9.039C16.0489 9.764 15.4602 10.2427 14.7241 10.475V17.5832H13.6408Z" fill="#DB3300"/>
</svg>
