<svg width="81" height="80" viewBox="0 0 81 80" fill="none" xmlns="http://www.w3.org/2000/svg">
<path d="M40.4667 45.0808C37.7011 45.0808 35.1258 45.7253 32.7408 47.0142C30.3558 48.3031 28.3986 50.0947 26.8692 52.3892C26.5686 52.8819 26.5506 53.3511 26.815 53.7967C27.08 54.2428 27.4647 54.4658 27.9692 54.4658C28.1825 54.4658 28.3758 54.4164 28.5492 54.3175C28.7225 54.2186 28.8656 54.0714 28.9783 53.8758C30.2644 51.9486 31.9147 50.4475 33.9292 49.3725C35.9442 48.2981 38.1208 47.7608 40.4592 47.7608C42.7981 47.7608 44.9697 48.3025 46.9742 49.3858C48.9781 50.4692 50.6233 51.9844 51.91 53.9317C52.055 54.0983 52.2114 54.2289 52.3792 54.3233C52.5464 54.4183 52.7383 54.4658 52.955 54.4658C53.4606 54.4658 53.8497 54.2403 54.1225 53.7892C54.3953 53.3386 54.3814 52.9089 54.0808 52.5C52.5981 50.1722 50.6381 48.3539 48.2008 47.045C45.7636 45.7356 43.1856 45.0808 40.4667 45.0808ZM51.6408 35.0467C52.6136 35.0467 53.4469 34.695 54.1408 33.9917C54.8342 33.2878 55.1808 32.4494 55.1808 31.4767C55.1808 30.5039 54.8292 29.6706 54.1258 28.9767C53.4219 28.2828 52.5836 27.9358 51.6108 27.9358C50.6375 27.9358 49.8042 28.2878 49.1108 28.9917C48.4169 29.6956 48.07 30.5339 48.07 31.5067C48.07 32.4794 48.4219 33.3128 49.1258 34.0067C49.8297 34.7 50.6681 35.0467 51.6408 35.0467ZM29.2642 35.0467C30.2375 35.0467 31.0708 34.695 31.7642 33.9917C32.4581 33.2878 32.805 32.4494 32.805 31.4767C32.805 30.5039 32.4531 29.6706 31.7492 28.9767C31.0453 28.2828 30.2069 27.9358 29.2342 27.9358C28.2614 27.9358 27.4281 28.2878 26.7342 28.9917C26.0408 29.6956 25.6942 30.5339 25.6942 31.5067C25.6942 32.4794 26.0458 33.3128 26.7492 34.0067C27.4531 34.7 28.2914 35.0467 29.2642 35.0467ZM40.4483 70C36.3 70 32.3997 69.2128 28.7475 67.6383C25.0958 66.0639 21.9192 63.9272 19.2175 61.2283C16.5158 58.5294 14.3772 55.3556 12.8017 51.7067C11.2256 48.0583 10.4375 44.1597 10.4375 40.0108C10.4375 35.8625 11.2247 31.9622 12.7992 28.31C14.3736 24.6583 16.5103 21.4817 19.2092 18.78C21.9081 16.0783 25.0819 13.9397 28.7308 12.3642C32.3792 10.7881 36.2778 10 40.4267 10C44.575 10 48.4753 10.7872 52.1275 12.3617C55.7792 13.9361 58.9558 16.0728 61.6575 18.7717C64.3592 21.4706 66.4978 24.6444 68.0733 28.2933C69.6494 31.9417 70.4375 35.8403 70.4375 39.9892C70.4375 44.1375 69.6503 48.0378 68.0758 51.69C66.5014 55.3417 64.3647 58.5183 61.6658 61.22C58.9669 63.9217 55.7931 66.0603 52.1442 67.6358C48.4958 69.2119 44.5972 70 40.4483 70ZM40.4333 67.1792C48.02 67.1792 54.4472 64.5467 59.715 59.2817C64.9828 54.0167 67.6167 47.5908 67.6167 40.0042C67.6167 32.4175 64.9842 25.9903 59.7192 20.7225C54.4542 15.4547 48.0283 12.8208 40.4417 12.8208C32.855 12.8208 26.4278 15.4533 21.16 20.7183C15.8922 25.9833 13.2583 32.4092 13.2583 39.9958C13.2583 47.5825 15.8908 54.0097 21.1558 59.2775C26.4208 64.5453 32.8467 67.1792 40.4333 67.1792Z" fill="#DB3300"/>
</svg>
