<svg width="40" height="41" viewBox="0 0 40 41" fill="none" xmlns="http://www.w3.org/2000/svg">
<path d="M20.0156 28.6893C21.375 28.6893 22.664 28.3584 23.8826 27.6968C25.1013 27.0351 26.0813 26.1295 26.8226 24.9801C26.9729 24.7612 26.9799 24.5391 26.8435 24.3139C26.7071 24.0883 26.5125 23.9755 26.2597 23.9755C26.1514 23.9755 26.0554 24.0027 25.9718 24.0572C25.8879 24.1119 25.8097 24.1809 25.7372 24.2643C25.0939 25.2234 24.2725 25.9775 23.2731 26.5264C22.2739 27.0752 21.185 27.3497 20.0064 27.3497C18.8489 27.3497 17.7644 27.0809 16.7531 26.5434C15.7417 26.0059 14.9144 25.2483 14.2714 24.2705C14.215 24.1872 14.1435 24.1172 14.0568 24.0605C13.9701 24.0039 13.8735 23.9755 13.7668 23.9755C13.5146 23.9755 13.3222 24.087 13.1897 24.3101C13.0575 24.5329 13.0665 24.7676 13.2168 25.0143C13.9815 26.1754 14.9601 27.0782 16.1526 27.7226C17.3451 28.3671 18.6328 28.6893 20.0156 28.6893ZM25.6026 18.078C26.089 18.078 26.5057 17.9022 26.8526 17.5505C27.1993 17.1986 27.3726 16.7794 27.3726 16.293C27.3726 15.8066 27.1968 15.39 26.8451 15.043C26.4932 14.6961 26.074 14.5226 25.5876 14.5226C25.101 14.5226 24.6843 14.6986 24.3376 15.0505C23.9907 15.4025 23.8172 15.8216 23.8172 16.308C23.8172 16.7944 23.9932 17.2111 24.3451 17.558C24.6971 17.9047 25.1163 18.078 25.6026 18.078ZM14.4143 18.078C14.901 18.078 15.3176 17.9022 15.6643 17.5505C16.0113 17.1986 16.1847 16.7794 16.1847 16.293C16.1847 15.8066 16.0088 15.39 15.6568 15.043C15.3049 14.6961 14.8857 14.5226 14.3993 14.5226C13.9129 14.5226 13.4963 14.6986 13.1493 15.0505C12.8026 15.4025 12.6293 15.8216 12.6293 16.308C12.6293 16.7944 12.8051 17.2111 13.1568 17.558C13.5088 17.9047 13.9279 18.078 14.4143 18.078ZM20.0064 35.5547C17.9322 35.5547 15.9821 35.1611 14.156 34.3739C12.3301 33.5866 10.7418 32.5183 9.39098 31.1689C8.04014 29.8194 6.97084 28.2325 6.18306 26.408C5.395 24.5839 5.00098 22.6345 5.00098 20.5601C5.00098 18.4859 5.39459 16.5358 6.18181 14.7097C6.96903 12.8839 8.03737 11.2955 9.38681 9.94469C10.7363 8.59385 12.3232 7.52455 14.1476 6.73677C15.9718 5.94872 17.9211 5.55469 19.9956 5.55469C22.0697 5.55469 24.0199 5.9483 25.846 6.73552C27.6718 7.52274 29.2601 8.59108 30.611 9.94052C31.9618 11.29 33.0311 12.8769 33.8189 14.7014C34.6069 16.5255 35.001 18.4748 35.001 20.5493C35.001 22.6234 34.6074 24.5736 33.8201 26.3997C33.0329 28.2255 31.9646 29.8139 30.6151 31.1647C29.2657 32.5155 27.6788 33.5848 25.8543 34.3726C24.0301 35.1607 22.0808 35.5547 20.0064 35.5547ZM19.9989 34.1443C23.7922 34.1443 27.0058 32.828 29.6397 30.1955C32.2736 27.563 33.5906 24.3501 33.5906 20.5568C33.5906 16.7634 32.2743 13.5498 29.6418 10.9159C27.0093 8.28205 23.7964 6.9651 20.0031 6.9651C16.2097 6.9651 12.9961 8.28135 10.3622 10.9139C7.72834 13.5464 6.41139 16.7593 6.41139 20.5526C6.41139 24.3459 7.72764 27.5595 10.3601 30.1934C12.9926 32.8273 16.2056 34.1443 19.9989 34.1443Z" fill="#F5F3EF"/>
</svg>
