<svg width="80" height="81" viewBox="0 0 80 81" fill="none" xmlns="http://www.w3.org/2000/svg">
<path d="M40.0301 56.8239C42.749 56.8239 45.3271 56.1622 47.7643 54.8389C50.2015 53.5155 52.1615 51.7044 53.6443 49.4055C53.9449 48.9677 53.9588 48.5236 53.686 48.073C53.4132 47.6219 53.024 47.3964 52.5185 47.3964C52.3018 47.3964 52.1099 47.4508 51.9426 47.5597C51.7749 47.6691 51.6185 47.8072 51.4735 47.9739C50.1868 49.8922 48.544 51.4002 46.5451 52.498C44.5468 53.5958 42.369 54.1447 40.0118 54.1447C37.6968 54.1447 35.5279 53.6072 33.5051 52.5322C31.4824 51.4572 29.8279 49.9419 28.5418 47.9864C28.429 47.8197 28.286 47.6797 28.1126 47.5664C27.9393 47.453 27.746 47.3964 27.5326 47.3964C27.0282 47.3964 26.6435 47.6194 26.3785 48.0655C26.114 48.5111 26.1321 48.9805 26.4326 49.4739C27.9621 51.7961 29.9193 53.6016 32.3043 54.8905C34.6893 56.1794 37.2646 56.8239 40.0301 56.8239ZM51.2043 35.6014C52.1771 35.6014 53.0104 35.2497 53.7043 34.5464C54.3976 33.8425 54.7443 33.0041 54.7443 32.0314C54.7443 31.0586 54.3926 30.2252 53.6893 29.5314C52.9854 28.8375 52.1471 28.4905 51.1743 28.4905C50.201 28.4905 49.3676 28.8425 48.6743 29.5464C47.9804 30.2502 47.6335 31.0886 47.6335 32.0614C47.6335 33.0341 47.9854 33.8675 48.6893 34.5614C49.3932 35.2547 50.2315 35.6014 51.2043 35.6014ZM28.8276 35.6014C29.801 35.6014 30.6343 35.2497 31.3276 34.5464C32.0215 33.8425 32.3685 33.0041 32.3685 32.0314C32.3685 31.0586 32.0165 30.2252 31.3126 29.5314C30.6088 28.8375 29.7704 28.4905 28.7976 28.4905C27.8249 28.4905 26.9915 28.8425 26.2976 29.5464C25.6043 30.2502 25.2576 31.0886 25.2576 32.0614C25.2576 33.0341 25.6093 33.8675 26.3126 34.5614C27.0165 35.2547 27.8549 35.6014 28.8276 35.6014ZM40.0118 70.5547C35.8635 70.5547 31.9632 69.7675 28.311 68.193C24.6593 66.6186 21.4826 64.4819 18.781 61.783C16.0793 59.0841 13.9407 55.9102 12.3651 52.2614C10.789 48.613 10.001 44.7144 10.001 40.5655C10.001 36.4172 10.7882 32.5169 12.3626 28.8647C13.9371 25.213 16.0738 22.0364 18.7726 19.3347C21.4715 16.633 24.6454 14.4944 28.2943 12.9189C31.9426 11.3427 35.8413 10.5547 39.9901 10.5547C44.1385 10.5547 48.0388 11.3419 51.691 12.9164C55.3426 14.4908 58.5193 16.6275 61.221 19.3264C63.9226 22.0252 66.0613 25.1991 67.6368 28.848C69.2129 32.4964 70.001 36.395 70.001 40.5439C70.001 44.6922 69.2138 48.5925 67.6393 52.2447C66.0649 55.8964 63.9282 59.073 61.2293 61.7747C58.5304 64.4764 55.3565 66.615 51.7076 68.1905C48.0593 69.7666 44.1607 70.5547 40.0118 70.5547ZM39.9968 67.7339C47.5835 67.7339 54.0107 65.1014 59.2785 59.8364C64.5463 54.5714 67.1801 48.1455 67.1801 40.5589C67.1801 32.9722 64.5476 26.545 59.2826 21.2772C54.0176 16.0094 47.5918 13.3755 40.0051 13.3755C32.4185 13.3755 25.9913 16.008 20.7235 21.273C15.4557 26.538 12.8218 32.9639 12.8218 40.5505C12.8218 48.1372 15.4543 54.5644 20.7193 59.8322C25.9843 65.1 32.4101 67.7339 39.9968 67.7339Z" fill="#DB3300"/>
</svg>
