<svg width="20" height="20" viewBox="0 0 20 20" fill="none" xmlns="http://www.w3.org/2000/svg">
<path d="M10.001 13.5733L6.80075 15.4867C6.67992 15.5433 6.56929 15.566 6.46888 15.5548C6.36846 15.5435 6.2761 15.5097 6.19179 15.4531C6.10735 15.3965 6.04533 15.3112 6.00575 15.1975C5.96631 15.0837 5.96471 14.9718 6.00096 14.8617L6.84075 11.3056L4.02033 8.91146C3.92728 8.83243 3.86957 8.73868 3.84721 8.63021C3.82471 8.52174 3.82895 8.41674 3.85992 8.31521C3.89089 8.21382 3.9486 8.13 4.03304 8.06375C4.11749 7.9975 4.21901 7.96007 4.33763 7.95146L8.03138 7.62146L9.49783 4.22875C9.55117 4.11333 9.62165 4.02812 9.70929 3.97312C9.79693 3.91812 9.89415 3.89062 10.001 3.89062C10.1078 3.89062 10.205 3.91812 10.2926 3.97312C10.3803 4.02812 10.4508 4.11333 10.5041 4.22875L11.9705 7.64229L15.6643 7.95146C15.7829 7.96007 15.8844 8.00097 15.9689 8.07417C16.0533 8.14736 16.111 8.23465 16.142 8.33604C16.173 8.43757 16.1737 8.5391 16.1443 8.64062C16.115 8.74215 16.0538 8.83243 15.9608 8.91146L13.1612 11.3056L14.001 14.8617C14.0372 14.9718 14.0356 15.0837 13.9962 15.1975C13.9566 15.3112 13.8946 15.3965 13.8101 15.4531C13.7258 15.5097 13.6335 15.5435 13.533 15.5548C13.4326 15.566 13.322 15.5433 13.2012 15.4867L10.001 13.5733Z" fill="#211D1C"/>
</svg>
