<svg width="20" height="21" viewBox="0 0 20 21" fill="none" xmlns="http://www.w3.org/2000/svg">
<path d="M4.41748 13.8948V6.55501C4.41748 6.15112 4.5147 5.78842 4.70915 5.46689C4.90359 5.14536 5.21769 4.87293 5.65144 4.6496C6.08519 4.42626 6.6613 4.25744 7.37977 4.14314C8.09824 4.02883 8.97193 3.97168 10.0008 3.97168C11.0168 3.97168 11.8766 4.02883 12.5802 4.14314C13.2837 4.25744 13.8563 4.42626 14.2981 4.6496C14.7399 4.87293 15.0647 5.14536 15.2725 5.46689C15.4803 5.78842 15.5841 6.15112 15.5841 6.55501V13.8948C15.5841 14.5699 15.3686 15.1613 14.9375 15.6688C14.5064 16.1763 13.9532 16.4856 13.2781 16.5967L13.8373 17.1561C14.0201 17.3387 14.0636 17.5481 13.9679 17.7842C13.8723 18.0203 13.6953 18.1383 13.4366 18.1383C13.3469 18.1383 13.2676 18.1215 13.1987 18.0879C13.1298 18.0542 13.0687 18.0106 13.0152 17.9573L11.6964 16.6383H8.30519L6.98644 17.9573C6.93297 18.0106 6.87179 18.0542 6.8029 18.0879C6.73401 18.1215 6.6547 18.1383 6.56498 18.1383C6.30109 18.1383 6.12262 18.0168 6.02956 17.7738C5.93665 17.5307 5.98158 17.3179 6.16436 17.1352L6.70269 16.5967C6.04144 16.4856 5.49526 16.1763 5.06415 15.6688C4.63304 15.1613 4.41748 14.5699 4.41748 13.8948ZM10.0008 5.05501C8.49012 5.05501 7.41318 5.14557 6.76998 5.32668C6.12679 5.50779 5.6904 5.82536 5.46081 6.27939H14.5298C14.3256 5.83606 13.9207 5.52112 13.315 5.3346C12.7091 5.14821 11.6044 5.05501 10.0008 5.05501ZM5.50081 10.4717H9.45915V7.36272H5.50081V10.4717ZM13.2156 11.555H5.50081H14.5008H13.2156ZM10.5425 10.4717H14.5008V7.36272H10.5425V10.4717ZM7.50081 14.3948C7.73054 14.3948 7.9279 14.3122 8.0929 14.1471C8.25804 13.9821 8.34061 13.7847 8.34061 13.555C8.34061 13.3253 8.25804 13.1279 8.0929 12.9629C7.9279 12.7978 7.73054 12.7152 7.50081 12.7152C7.27109 12.7152 7.07373 12.7978 6.90873 12.9629C6.74359 13.1279 6.66102 13.3253 6.66102 13.555C6.66102 13.7847 6.74359 13.9821 6.90873 14.1471C7.07373 14.3122 7.27109 14.3948 7.50081 14.3948ZM12.5008 14.3948C12.7305 14.3948 12.9279 14.3122 13.0929 14.1471C13.258 13.9821 13.3406 13.7847 13.3406 13.555C13.3406 13.3253 13.258 13.1279 13.0929 12.9629C12.9279 12.7978 12.7305 12.7152 12.5008 12.7152C12.2711 12.7152 12.0737 12.7978 11.9087 12.9629C11.7436 13.1279 11.661 13.3253 11.661 13.555C11.661 13.7847 11.7436 13.9821 11.9087 14.1471C12.0737 14.3122 12.2711 14.3948 12.5008 14.3948ZM7.16102 15.555H12.8406C13.2946 15.555 13.6848 15.3918 14.0112 15.0654C14.3376 14.739 14.5008 14.3488 14.5008 13.8948V11.555H5.50081V13.8948C5.50081 14.3488 5.66401 14.739 5.9904 15.0654C6.31679 15.3918 6.70699 15.555 7.16102 15.555ZM10.0008 6.27939H14.5298H5.46081H10.0008Z" fill="#211D1C"/>
</svg>
