<svg width="20" height="21" viewBox="0 0 20 21" fill="none" xmlns="http://www.w3.org/2000/svg">
<path d="M8.90021 12.5562L7.59708 17.966C7.57167 18.0805 7.51153 18.1725 7.41667 18.242C7.32181 18.3114 7.21306 18.3462 7.09042 18.3462C6.92528 18.3462 6.79326 18.2874 6.69437 18.1699C6.59549 18.0524 6.5616 17.9076 6.59271 17.7355L8.47562 8.28533L6.34896 9.20199V10.7966C6.34896 10.9502 6.29757 11.0789 6.19479 11.1826C6.09188 11.2862 5.96417 11.338 5.81167 11.338C5.65917 11.338 5.53007 11.2862 5.42437 11.1826C5.31854 11.0789 5.26562 10.9502 5.26562 10.7966V8.91824C5.26562 8.78255 5.30299 8.65991 5.37771 8.55032C5.45243 8.44088 5.55174 8.3572 5.67562 8.29928L8.86333 6.95345C9.00222 6.8979 9.12701 6.85491 9.23771 6.82449C9.34826 6.79408 9.45799 6.77088 9.56687 6.75491C9.91201 6.7388 10.2128 6.80394 10.4692 6.95033C10.7256 7.09671 10.9483 7.30081 11.1375 7.56262L11.1967 7.62491C11.3901 7.9231 11.576 8.22095 11.7544 8.51845C11.9328 8.81595 12.1428 9.09345 12.3842 9.35095C12.6107 9.56887 12.8692 9.75053 13.1598 9.89595C13.4505 10.0412 13.8159 10.147 14.256 10.2132C14.4109 10.2303 14.5391 10.2916 14.6406 10.397C14.7422 10.5025 14.7929 10.6316 14.7929 10.7841C14.7929 10.9366 14.74 11.0657 14.6342 11.1714C14.5285 11.2772 14.4078 11.3189 14.2721 11.2964C13.5146 11.1971 12.8404 10.965 12.2496 10.6001C11.6587 10.2353 11.1983 9.74671 10.8681 9.13449L10.3106 12.1347L11.5973 13.4962C11.6551 13.5628 11.7021 13.6346 11.7383 13.7116C11.7747 13.7885 11.7929 13.8772 11.7929 13.9776V17.8045C11.7929 17.9582 11.7415 18.0869 11.6385 18.1905C11.5358 18.2943 11.4081 18.3462 11.2556 18.3462C11.1031 18.3462 10.974 18.2943 10.8683 18.1905C10.7625 18.0869 10.7096 17.9582 10.7096 17.8045V14.1314L8.90021 12.5562ZM10.996 5.92637C10.5455 5.92637 10.1634 5.76783 9.84979 5.45074C9.53618 5.1338 9.37937 4.74998 9.37937 4.29928C9.37937 3.84873 9.53792 3.46664 9.855 3.15303C10.1719 2.83942 10.5558 2.68262 11.0065 2.68262C11.457 2.68262 11.8391 2.84116 12.1527 3.15824C12.4663 3.47519 12.6231 3.85901 12.6231 4.3097C12.6231 4.76026 12.4646 5.14234 12.1475 5.45595C11.8306 5.76956 11.4467 5.92637 10.996 5.92637Z" fill="#211D1C"/>
</svg>
