<svg width="41" height="40" viewBox="0 0 41 40" fill="none" xmlns="http://www.w3.org/2000/svg">
<path d="M20.0681 21.0044L11.1493 29.9231C11.016 30.0565 10.8539 30.1284 10.6631 30.139C10.4723 30.1498 10.2996 30.0779 10.1452 29.9231C9.99045 29.7687 9.91309 29.6013 9.91309 29.421C9.91309 29.241 9.99045 29.0737 10.1452 28.919L19.0639 20.0002L10.1452 11.0815C10.0118 10.9481 9.93989 10.786 9.92934 10.5952C9.9185 10.4044 9.99045 10.2317 10.1452 10.0773C10.2996 9.92257 10.467 9.84521 10.6473 9.84521C10.8273 9.84521 10.9946 9.92257 11.1493 10.0773L20.0681 18.996L28.9868 10.0773C29.1202 9.94396 29.2823 9.87202 29.4731 9.86146C29.6639 9.85063 29.8366 9.92257 29.991 10.0773C30.1457 10.2317 30.2231 10.3991 30.2231 10.5794C30.2231 10.7594 30.1457 10.9267 29.991 11.0815L21.0723 20.0002L29.991 28.919C30.1243 29.0523 30.1963 29.2144 30.2068 29.4052C30.2177 29.596 30.1457 29.7687 29.991 29.9231C29.8366 30.0779 29.6692 30.1552 29.4889 30.1552C29.3089 30.1552 29.1416 30.0779 28.9868 29.9231L20.0681 21.0044Z" fill="#DB3300"/>
</svg>
