<svg width="40" height="41" viewBox="0 0 40 41" fill="none" xmlns="http://www.w3.org/2000/svg">
<path d="M15.5343 24.7452L17.0357 24.4043C17.067 24.3972 17.1201 24.3854 17.1828 24.3653C17.5975 24.2561 17.9528 23.9933 18.174 23.6321C18.3951 23.2709 18.4647 22.8395 18.3682 22.4289L18.3622 22.4029C18.3126 22.2062 18.2258 22.0203 18.1065 21.8549C17.9384 21.6454 17.7303 21.4702 17.4939 21.3388C17.2156 21.1832 16.9243 21.0509 16.6233 20.9435L14.9772 20.3529C14.0534 20.0156 13.1297 19.6877 12.1963 19.367C11.5922 19.1563 11.0796 18.9705 10.6347 18.8344C10.55 18.8114 10.4659 18.7861 10.3826 18.7586C9.84478 18.5976 9.46612 18.5302 9.14655 18.5278C8.93297 18.52 8.72021 18.558 8.5231 18.6391C8.31715 18.7266 8.13226 18.8556 7.98043 19.0178C7.90511 19.1017 7.83426 19.1894 7.76819 19.2806C7.63971 19.4743 7.53374 19.6815 7.45224 19.8984C7.14642 20.7849 6.99397 21.7155 7.00122 22.6514C7.00725 23.4965 7.03017 24.5819 7.50409 25.3181C7.61865 25.5074 7.77181 25.6708 7.9539 25.7974C8.29156 26.0258 8.63163 26.0566 8.98737 26.0815C9.51798 26.1182 10.0305 25.9915 10.543 25.8744L15.5307 24.744L15.5343 24.7452ZM32.2845 16.9229C31.8747 16.0785 31.3236 15.3076 30.6541 14.6421C30.5676 14.5574 30.4749 14.4791 30.3768 14.4077C30.2861 14.341 30.1919 14.279 30.0946 14.2219C29.9944 14.168 29.8913 14.1194 29.7859 14.0763C29.5777 13.996 29.3545 13.9597 29.131 13.9698C28.9176 13.9816 28.709 14.0408 28.5197 14.1391C28.2338 14.2787 27.9239 14.5036 27.5115 14.8788C27.4548 14.9344 27.3837 14.9972 27.3186 15.0563C26.9797 15.37 26.601 15.757 26.1512 16.2068C25.4554 16.8968 24.7716 17.5904 24.0903 18.2899L22.8723 19.5303C22.6499 19.7565 22.4474 20.0008 22.267 20.2606C22.1125 20.4804 22.0031 20.7276 21.945 20.9885C21.9124 21.1889 21.9173 21.3935 21.9594 21.5921L21.9655 21.6182C22.0617 22.0283 22.3164 22.3859 22.6758 22.6155C23.0353 22.8451 23.4714 22.9288 23.8925 22.8491C23.9432 22.8421 23.9935 22.8326 24.0433 22.8207L30.5335 21.3483C31.046 21.2323 31.5646 21.1258 32.024 20.863C32.3328 20.689 32.6258 20.5151 32.8272 20.1647C32.9345 19.9717 32.9994 19.7589 33.0177 19.5398C33.1178 18.671 32.6559 17.6851 32.2845 16.9229ZM20.6655 19.6013C21.1358 19.0214 21.1358 18.1573 21.1768 17.4496C21.3191 15.0883 21.4674 12.727 21.5868 10.3646C21.6314 9.46979 21.7291 8.58684 21.6749 7.68494C21.6302 6.94165 21.6254 6.08709 21.1467 5.47636C20.3025 4.39929 18.5009 4.48806 17.272 4.65613C16.893 4.70753 16.5167 4.77705 16.1445 4.86445C15.7707 4.95203 15.3992 5.0479 15.0375 5.16271C13.8581 5.54146 12.1999 6.23741 11.9202 7.57132C11.761 8.32526 12.1372 9.09578 12.4267 9.78463C12.78 10.6179 13.2612 11.3695 13.7001 12.1542C14.8614 14.2266 16.0432 16.2873 17.2214 18.3491C17.5747 18.9646 17.957 19.7434 18.6383 20.0629C18.6842 20.0819 18.73 20.0984 18.777 20.1138C19.0821 20.2274 19.4162 20.2487 19.7333 20.1765L19.79 20.1647C20.0842 20.0854 20.3495 19.928 20.5582 19.7114C20.5968 19.6759 20.6305 19.6404 20.6655 19.6013ZM20.1023 25.9229C19.9188 25.6695 19.6583 25.4795 19.358 25.3802C19.0578 25.281 18.7333 25.2774 18.4309 25.3701C18.3598 25.3931 18.2905 25.4212 18.2235 25.4542C18.1199 25.506 18.021 25.5666 17.9281 25.6353C17.6626 25.8406 17.4254 26.0789 17.2226 26.3442C17.1707 26.4093 17.1225 26.4957 17.0598 26.5525L16.0155 27.961C15.4246 28.7517 14.8397 29.5435 14.2621 30.3471C13.8834 30.8667 13.5578 31.3058 13.2985 31.6929C13.2503 31.7663 13.1997 31.8467 13.1538 31.913C12.8439 32.3817 12.669 32.725 12.5786 33.0303C12.511 33.2332 12.4896 33.4481 12.5159 33.66C12.5448 33.8802 12.6208 34.092 12.7378 34.2826C12.8005 34.3773 12.868 34.4696 12.9404 34.5583C13.0967 34.7349 13.2726 34.8937 13.465 35.0318C14.1861 35.5242 14.9748 35.8781 15.8044 36.1515C16.4954 36.3763 17.2129 36.5113 17.9389 36.5515C18.0631 36.5574 18.1873 36.5551 18.3103 36.5444C18.4244 36.5339 18.5379 36.5181 18.6504 36.4971C18.763 36.4713 18.8741 36.4397 18.9832 36.4024C19.1954 36.3243 19.3885 36.2034 19.55 36.0473C19.7032 35.897 19.8214 35.7159 19.8949 35.5159C20.0155 35.22 20.0951 34.846 20.1482 34.2897C20.1518 34.2104 20.1638 34.1157 20.1723 34.0293C20.2133 33.5677 20.2326 33.0232 20.2615 32.3865C20.3134 31.4053 20.3532 30.4288 20.3845 29.45L20.452 27.7077C20.4677 27.3077 20.4545 26.8626 20.3411 26.4638C20.2913 26.2722 20.2107 26.0896 20.1023 25.9229ZM31.8878 28.6487C31.6707 28.4132 31.362 28.18 30.8748 27.8912C30.8049 27.8521 30.7217 27.8012 30.6457 27.7563C30.2405 27.516 29.7521 27.2651 29.1817 26.9609C28.305 26.4874 27.4283 26.0282 26.5419 25.5714L24.9779 24.757C24.8971 24.7334 24.8151 24.6766 24.7379 24.6399C24.4371 24.4891 24.1177 24.3773 23.7876 24.3073C23.6739 24.2857 23.5585 24.2739 23.4427 24.2718C23.3678 24.2714 23.2928 24.2757 23.2184 24.2848C22.9053 24.3322 22.6155 24.4755 22.3902 24.6943C22.165 24.913 22.0159 25.1959 21.9643 25.5027C21.9414 25.698 21.9486 25.8957 21.9872 26.0874C22.0632 26.4969 22.2489 26.9005 22.4418 27.2544L23.2763 28.7919C23.7418 29.6583 24.2121 30.5199 24.6945 31.3792C25.0056 31.9391 25.2649 32.4184 25.5073 32.8161C25.5531 32.8907 25.6049 32.9712 25.6447 33.041C25.9402 33.518 26.1765 33.8186 26.4165 34.0352C26.5764 34.1861 26.7682 34.3004 26.9784 34.37C27.1885 34.4396 27.4118 34.4627 27.6321 34.4376C27.7468 34.4239 27.8608 34.4041 27.9734 34.3784C28.2041 34.3178 28.427 34.2317 28.6378 34.1216C29.2726 33.7724 29.8577 33.3426 30.378 32.8433C31.0026 32.2397 31.555 31.5816 31.9843 30.8289C32.0446 30.7223 32.0952 30.6123 32.1386 30.4975C32.179 30.3923 32.214 30.2853 32.2435 30.1767C32.2689 30.0654 32.2882 29.9542 32.3014 29.8417C32.323 29.6208 32.2972 29.3978 32.2254 29.1872C32.1546 28.9852 32.0394 28.8009 31.8878 28.6475V28.6487Z" fill="#F5F3EF"/>
</svg>
