<svg width="139" height="130" viewBox="0 0 139 130" fill="none" xmlns="http://www.w3.org/2000/svg">
<g clip-path="url(#clip0_187_1041)">
<path d="M61.2083 123.9C92.8948 131.058 124.663 111.634 132.603 79.9549C140.658 47.8119 121.132 15.2243 88.989 7.16846C57.3101 -0.771117 25.1992 18.0811 16.5667 49.398L4.24605 98.501C2.79385 104.289 6.31026 110.157 12.0986 111.606L61.2083 123.9Z" fill="#C3EF85"/>
<path d="M70.4746 81.156C73.112 81.817 75.7735 81.8019 78.4593 81.1108C81.1452 80.4196 83.4866 79.1393 85.4838 77.2699C85.8818 76.9183 86.0032 76.4909 85.8482 75.9875C85.6932 75.4836 85.3706 75.1702 84.8802 75.0473C84.67 74.9946 84.4706 75.0008 84.2819 75.0658C84.0926 75.1311 83.9073 75.227 83.7262 75.3534C82.0117 76.9014 80.0516 77.9649 77.8458 78.5438C75.6406 79.1228 73.3947 79.1258 71.1082 78.5527C68.8626 77.9899 66.8895 76.9413 65.1887 75.4068C63.488 73.8723 62.2515 72.0003 61.4794 69.7907C61.4105 69.6016 61.3058 69.4311 61.1652 69.279C61.0247 69.1269 60.8509 69.0249 60.644 68.9731C60.1546 68.8504 59.7272 68.9733 59.3617 69.3416C58.9969 69.7095 58.9003 70.1692 59.0719 70.7208C59.9909 73.3452 61.4505 75.5724 63.4506 77.4024C65.4507 79.2325 67.792 80.4837 70.4746 81.156ZM86.4729 63.2867C87.4165 63.5232 88.3103 63.3846 89.1544 62.8711C89.998 62.3569 90.5381 61.628 90.7746 60.6844C91.0111 59.7408 90.8726 58.847 90.359 58.0029C89.8449 57.1587 89.1161 56.6184 88.1725 56.3819C87.2284 56.1453 86.3345 56.2841 85.4908 56.7983C84.6466 57.3124 84.1063 58.0412 83.8698 58.9848C83.6333 59.9284 83.7721 60.8223 84.2862 61.6665C84.8004 62.5101 85.5293 63.0502 86.4729 63.2867ZM64.7676 57.8468C65.7117 58.0834 66.6055 57.9449 67.449 57.4312C68.2932 56.9171 68.8336 56.1883 69.0701 55.2447C69.3065 54.3011 69.1677 53.4072 68.6537 52.563C68.1396 51.7188 67.4107 51.1784 66.4672 50.942C65.5236 50.7055 64.6297 50.8443 63.7855 51.3584C62.9418 51.8726 62.4017 52.6015 62.1653 53.5451C61.9288 54.4887 62.0673 55.3825 62.5808 56.2265C63.0951 57.0702 63.824 57.6103 64.7676 57.8468ZM67.1188 94.4704C63.0949 93.4619 59.503 91.7501 56.3431 89.3351C53.1838 86.9201 50.6218 84.0753 48.6573 80.8005C46.6929 77.5258 45.39 73.9272 44.7488 70.0048C44.1069 66.0828 44.2903 62.1095 45.2989 58.0851C46.3074 54.0612 48.0192 50.4693 50.4343 47.3094C52.8492 44.1501 55.694 41.5882 58.9688 39.6237C62.2435 37.6592 65.8421 36.3563 69.7645 35.7151C73.6865 35.0732 77.6598 35.2566 81.6842 36.2652C85.7081 37.2737 89.3 38.9855 92.4599 41.4006C95.6192 43.8155 98.1811 46.6604 100.146 49.9351C102.11 53.2098 103.413 56.8084 104.054 60.7308C104.696 64.6529 104.513 68.6261 103.504 72.6505C102.496 76.6744 100.784 80.2663 98.3687 83.4262C95.9538 86.5855 93.1089 89.1475 89.8342 91.112C86.5595 93.0764 82.9609 94.3793 79.0385 95.0205C75.1164 95.6624 71.1432 95.479 67.1188 94.4704ZM67.79 91.7306C75.1491 93.5749 82.0234 92.5839 88.4131 88.7575C94.8028 84.9311 98.9199 79.3384 100.764 71.9793C102.609 64.6202 101.618 57.7459 97.7912 51.3562C93.9648 44.9665 88.372 40.8494 81.013 39.005C73.6539 37.1607 66.7795 38.1517 60.3898 41.9781C54.0001 45.8045 49.8831 51.3973 48.0387 58.7563C46.1944 66.1154 47.1854 72.9898 51.0118 79.3795C54.8382 85.7692 60.4309 89.8862 67.79 91.7306Z" fill="#DB3300"/>
</g>
<defs>
<clipPath id="clip0_187_1041">
<rect width="138" height="129" fill="white" transform="translate(0.5 0.219727)"/>
</clipPath>
</defs>
</svg>
