<svg width="227" height="189" viewBox="0 0 227 189" fill="none" xmlns="http://www.w3.org/2000/svg">
<g clip-path="url(#clip0_187_1040)">
<rect x="92.6133" y="17.5195" width="120" height="120" rx="60" transform="rotate(-11.2846 92.6133 17.5195)" fill="#F4ED67"/>
<path d="M163.587 66.5883L149.583 87.5703C149.374 87.884 149.084 88.0885 148.714 88.1839C148.344 88.2798 147.977 88.2062 147.614 87.9632C147.25 87.7208 147.032 87.4228 146.962 87.0692C146.892 86.7162 146.978 86.3576 147.221 85.9936L161.225 65.0116L140.243 51.0078C139.929 50.7984 139.724 50.5087 139.629 50.1385C139.533 49.7684 139.607 49.4017 139.85 49.0382C140.092 48.6743 140.39 48.4571 140.744 48.3866C141.097 48.3162 141.455 48.4025 141.819 48.6454L162.801 62.6492L176.805 41.6672C177.014 41.3536 177.304 41.149 177.674 41.0537C178.044 40.9578 178.411 41.0313 178.775 41.2744C179.139 41.5168 179.356 41.8148 179.426 42.1684C179.497 42.5214 179.41 42.8799 179.167 43.2439L165.164 64.2259L186.146 78.2298C186.459 78.4391 186.664 78.7289 186.759 79.0991C186.855 79.4691 186.782 79.8359 186.538 80.1993C186.296 80.5632 185.998 80.7804 185.645 80.851C185.291 80.9214 184.933 80.8351 184.569 80.5922L163.587 66.5883Z" fill="#DB3300"/>
<path d="M37.6779 69.7588C40.7022 57.6422 55.4075 52.913 64.9277 60.9954V60.9954C70.4639 65.6955 78.3939 66.3155 84.5913 62.5296L85.6933 61.8563C96.0426 55.534 109.396 62.5322 110.087 74.6401V74.6401C110.498 81.8429 115.665 87.8866 122.717 89.4123V89.4123C134.784 92.0231 139.507 106.712 131.224 115.867V115.867C126.384 121.217 125.709 129.139 129.573 135.232V135.232C136.069 145.473 129.298 158.943 117.204 159.838L115.916 159.934C108.674 160.47 102.592 165.596 100.833 172.642V172.642C97.8086 184.759 83.1032 189.488 73.5831 181.406V181.406C68.0469 176.706 60.1169 176.086 53.9195 179.871L52.8174 180.545C42.4682 186.867 29.1151 179.869 28.4237 167.761V167.761C28.0124 160.558 22.8455 154.514 15.794 152.989V152.989C3.72713 150.378 -0.9966 135.69 7.28637 126.534V126.534C12.1266 121.184 12.802 113.262 8.93766 107.169V107.169C2.44174 96.9281 9.21231 83.4582 21.3068 82.5627L22.5948 82.4674C29.8372 81.9312 35.9192 76.8049 37.6779 69.7588V69.7588Z" fill="#FDB2D9"/>
<path d="M74.2639 136.68C76.8522 135.848 79.1039 134.428 81.0188 132.422C82.9338 130.416 84.2451 128.092 84.9528 125.45C85.1048 124.941 84.9821 124.514 84.5844 124.168C84.1866 123.822 83.7471 123.727 83.2658 123.882C83.0595 123.948 82.8935 124.059 82.7676 124.213C82.6414 124.369 82.5348 124.548 82.4478 124.751C81.8103 126.972 80.7082 128.91 79.1415 130.567C77.5753 132.224 75.6701 133.414 73.4261 134.135C71.2223 134.844 68.993 134.997 66.7383 134.593C64.4835 134.189 62.4445 133.253 60.6214 131.785C60.463 131.661 60.284 131.571 60.0843 131.516C59.8845 131.462 59.6831 131.467 59.4801 131.532C58.9998 131.687 58.7019 132.017 58.5862 132.523C58.4709 133.028 58.6318 133.469 59.069 133.847C61.236 135.589 63.6521 136.709 66.3172 137.205C68.9823 137.702 71.6312 137.527 74.2639 136.68ZM78.4032 113.056C79.3293 112.758 80.0149 112.168 80.4601 111.286C80.9046 110.403 80.9779 109.499 80.6801 108.573C80.3822 107.647 79.7923 106.961 78.9103 106.516C78.0277 106.071 77.1234 105.998 76.1974 106.295C75.2708 106.593 74.5852 107.184 74.1407 108.066C73.6957 108.949 73.6221 109.853 73.92 110.779C74.2178 111.705 74.808 112.391 75.6906 112.836C76.5729 113.28 77.4771 113.353 78.4032 113.056ZM57.1013 119.907C58.0279 119.609 58.7135 119.019 59.1582 118.137C59.6032 117.255 59.6768 116.351 59.379 115.424C59.0811 114.498 58.4909 113.813 57.6084 113.368C56.7258 112.923 55.8215 112.849 54.8955 113.147C53.9694 113.445 53.2839 114.035 52.8388 114.918C52.3943 115.8 52.321 116.704 52.6188 117.63C52.9167 118.556 53.5066 119.242 54.3887 119.687C55.271 120.132 56.1753 120.205 57.1013 119.907ZM78.4508 149.757C74.5017 151.027 70.5477 151.472 66.5888 151.092C62.6305 150.711 58.9521 149.65 55.5539 147.908C52.1556 146.166 49.1478 143.799 46.5307 140.808C43.9132 137.817 41.9693 134.347 40.6989 130.398C39.4287 126.448 38.9839 122.494 39.3644 118.536C39.7451 114.577 40.8065 110.899 42.5485 107.501C44.2905 104.102 46.6571 101.095 49.6483 98.4774C52.6389 95.8599 56.1089 93.916 60.0585 92.6456C64.0076 91.3754 67.9616 90.9306 71.9205 91.3111C75.8789 91.6918 79.5572 92.7532 82.9555 94.4952C86.3537 96.2373 89.3615 98.6039 91.9786 101.595C94.5961 104.586 96.54 108.056 97.8104 112.005C99.0806 115.954 99.5254 119.908 99.1449 123.867C98.7642 127.826 97.7028 131.504 95.9608 134.902C94.2188 138.3 91.8522 141.308 88.861 143.925C85.8705 146.543 82.4004 148.487 78.4508 149.757ZM77.5728 147.076C84.7951 144.753 90.1075 140.279 93.5102 133.654C96.9128 127.029 97.4527 120.106 95.1297 112.883C92.8067 105.661 88.3326 100.349 81.7076 96.9459C75.0825 93.5432 68.1588 93.0034 60.9365 95.3264C53.7143 97.6494 48.4018 102.123 44.9991 108.748C41.5965 115.374 41.0567 122.297 43.3797 129.52C45.7026 136.742 50.1767 142.054 56.8018 145.457C63.4268 148.86 70.3505 149.399 77.5728 147.076Z" fill="#DB3300"/>
</g>
<defs>
<clipPath id="clip0_187_1040">
<rect width="226" height="188" fill="white" transform="translate(0.5 0.219727)"/>
</clipPath>
</defs>
</svg>
