<svg width="130" height="128" viewBox="0 0 130 128" fill="none" xmlns="http://www.w3.org/2000/svg">
<rect x="6.83887" y="3.85645" width="120" height="120" rx="60" fill="#B2D3ED"/>
<path d="M67.0326 65.8559L50.9937 85.3265C50.7539 85.6176 50.4451 85.792 50.0672 85.8497C49.6894 85.908 49.3319 85.798 48.9947 85.5197C48.6569 85.242 48.4707 84.9237 48.436 84.5648C48.4014 84.2065 48.5232 83.8584 48.8015 83.5207L64.8404 64.05L45.3698 48.0111C45.0787 47.7713 44.9043 47.4625 44.8466 47.0846C44.7883 46.7068 44.8983 46.3493 45.1766 46.0121C45.4543 45.6744 45.7726 45.4882 46.1314 45.4535C46.4898 45.4189 46.8378 45.5407 47.1756 45.8189L66.6462 61.8578L82.6852 42.3872C82.9249 42.0961 83.2338 41.9217 83.6116 41.864C83.9894 41.8057 84.347 41.9157 84.6842 42.194C85.0219 42.4717 85.2081 42.79 85.2428 43.1489C85.2774 43.5072 85.1556 43.8553 84.8774 44.193L68.8384 63.6637L88.3091 79.7026C88.6002 79.9424 88.7746 80.2512 88.8323 80.6291C88.8906 81.0069 88.7806 81.3644 88.5023 81.7016C88.2246 82.0393 87.9063 82.2255 87.5474 82.2602C87.1891 82.2949 86.841 82.1731 86.5032 81.8948L67.0326 65.8559Z" fill="#DB3300"/>
</svg>
