<svg width="179" height="132" viewBox="0 0 179 132" fill="none" xmlns="http://www.w3.org/2000/svg">
<g clip-path="url(#clip0_187_1043)">
<path d="M150.549 10.0959C143.032 9.57292 135.616 12.0535 129.931 16.9922C124.247 21.9308 120.759 28.923 120.236 36.4307C120.495 32.713 120.018 28.9806 118.833 25.4466C117.648 21.9126 115.778 18.6462 113.329 15.834C110.881 13.0217 107.902 10.7187 104.562 9.05633C101.222 7.39396 97.5878 6.40483 93.8657 6.14541C86.3492 5.62239 78.9329 8.10301 73.2482 13.0416C67.5635 17.9803 64.076 24.9724 63.5527 32.4802C63.8118 28.7624 63.3353 25.03 62.1503 21.4961C60.9653 17.9621 59.0951 14.6957 56.6464 11.8835C54.1977 9.07121 51.2185 6.76817 47.879 5.1058C44.5394 3.44343 40.9048 2.45429 37.1827 2.19488V2.19488C29.6661 1.67186 22.2499 4.15248 16.5652 9.09112C10.8805 14.0298 7.39296 21.0219 6.86971 28.5296L2.47265 91.6194C1.9494 99.1271 4.4333 106.535 9.37796 112.215C14.3226 117.894 21.3231 121.38 28.8395 121.904V121.904C36.3566 122.428 43.7736 119.948 49.459 115.01C55.1444 110.071 58.6324 103.078 59.1557 95.57C58.6324 103.078 61.1163 110.486 66.061 116.165C71.0056 121.845 78.0061 125.33 85.5225 125.855C93.0396 126.379 100.457 123.899 106.142 118.96C111.827 114.021 115.315 107.029 115.839 99.5205C115.315 107.028 117.799 114.437 122.744 120.116C127.689 125.795 134.689 129.281 142.206 129.806V129.806C149.723 130.329 157.14 127.849 162.825 122.911C168.51 117.972 171.998 110.979 172.522 103.471L176.919 40.3812C177.178 36.6635 176.701 32.9311 175.516 29.3971C174.331 25.8631 172.461 22.5968 170.012 19.7845C167.564 16.9723 164.585 14.6692 161.245 13.0069C157.905 11.3445 154.271 10.3554 150.549 10.0959V10.0959Z" fill="#F3DCD2"/>
<path d="M88.5962 82.2299C91.3085 82.4191 93.9264 81.9384 96.4498 80.7879C98.9732 79.6374 101.054 77.967 102.694 75.7769C103.024 75.3611 103.069 74.9189 102.828 74.4505C102.587 73.9815 102.215 73.7294 101.71 73.6942C101.494 73.6792 101.299 73.7201 101.124 73.8171C100.949 73.9146 100.784 74.0414 100.628 74.1976C99.2106 76.0218 97.4669 77.4119 95.3965 78.3679C93.3266 79.324 91.1159 79.72 88.7644 79.556C86.455 79.3949 84.3288 78.7078 82.3857 77.4946C80.4426 76.2815 78.8976 74.6548 77.7507 72.6145C77.6498 72.4403 77.5168 72.2907 77.3518 72.1656C77.1868 72.0405 76.9978 71.9705 76.785 71.9557C76.2818 71.9206 75.8825 72.1163 75.5871 72.5429C75.2923 72.969 75.2776 73.4385 75.5431 73.9516C76.9073 76.3746 78.7341 78.312 81.0237 79.7637C83.3132 81.2154 85.8374 82.0375 88.5962 82.2299ZM101.22 61.8364C102.19 61.9041 103.046 61.6112 103.787 60.9579C104.528 60.304 104.932 59.4918 105 58.5214C105.068 57.5509 104.775 56.6952 104.121 55.954C103.467 55.2128 102.655 54.8084 101.685 54.7407C100.714 54.673 99.8581 54.9661 99.1175 55.62C98.3763 56.2739 97.9719 57.0861 97.9042 58.0565C97.8365 59.0269 98.1296 59.8827 98.7835 60.6239C99.4374 61.3645 100.25 61.7687 101.22 61.8364ZM78.8976 60.2794C79.8686 60.3471 80.7244 60.0543 81.465 59.4009C82.2061 58.747 82.6106 57.9348 82.6783 56.9644C82.746 55.994 82.4528 55.1382 81.7989 54.397C81.145 53.6558 80.3329 53.2514 79.3625 53.1837C78.392 53.116 77.5362 53.4091 76.7951 54.063C76.0544 54.7169 75.6503 55.5291 75.5826 56.4995C75.5149 57.47 75.8077 58.3257 76.4611 59.0669C77.115 59.8075 77.9272 60.2117 78.8976 60.2794ZM87.6225 95.9262C83.4842 95.6375 79.6482 94.5808 76.1144 92.7561C72.5811 90.9314 69.5608 88.5788 67.0535 85.6985C64.5462 82.8182 62.6336 79.5032 61.3158 75.7535C59.9973 72.0043 59.4825 68.0603 59.7712 63.9215C60.0598 59.7832 61.1165 55.9472 62.9413 52.4133C64.766 48.8801 67.1185 45.8598 69.9988 43.3525C72.8792 40.8451 76.1942 38.9326 79.9439 37.6147C83.693 36.2963 87.637 35.7814 91.7759 36.0701C95.9141 36.3588 99.7502 37.4155 103.284 39.2402C106.817 41.065 109.838 43.4175 112.345 46.2978C114.852 49.1781 116.765 52.4932 118.083 56.2428C119.401 59.992 119.916 63.936 119.627 68.0748C119.339 72.2131 118.282 76.0491 116.457 79.583C114.632 83.1162 112.28 86.1365 109.4 88.6438C106.519 91.1512 103.204 93.0637 99.4545 94.3816C95.7054 95.7 91.7614 96.2149 87.6225 95.9262ZM87.8038 93.1112C95.3721 93.6391 101.967 91.4602 107.588 86.5745C113.21 81.6888 116.284 75.4618 116.812 67.8935C117.34 60.3252 115.161 53.7304 110.275 48.109C105.39 42.4877 99.1628 39.4131 91.5945 38.8852C84.0263 38.3573 77.4314 40.5362 71.8101 45.4218C66.1887 50.3075 63.1141 56.5345 62.5862 64.1028C62.0583 71.6711 64.2372 78.2659 69.1229 83.8873C74.0086 89.5086 80.2356 92.5833 87.8038 93.1112Z" fill="#DB3300"/>
</g>
<defs>
<clipPath id="clip0_187_1043">
<rect width="178.392" height="131.561" fill="white" transform="translate(0.5 0.219727)"/>
</clipPath>
</defs>
</svg>
